/* XPM */
static char *_9d9e0a2a6884842b6744a592a302985gbYPBg9KUBCgJVqm[] = {
/* columns rows colors chars-per-pixel */
"64 64 31 1 ",
"  c #1D333E",
". c #1C323F",
"X c #1C3240",
"o c #1D3340",
"O c #1D3341",
"+ c #1F3240",
"@ c #1C3440",
"# c #1E3441",
"$ c #203341",
"% c #9AABB5",
"& c #9AAAB7",
"* c #9DABB6",
"= c #9BACB4",
"- c #9AACB6",
"; c #9BACB6",
": c #9EACB5",
"> c #9CADB7",
", c #9BABB8",
"< c #CEC9C6",
"1 c #D2CDC9",
"2 c #D3CECA",
"3 c #D5CEC8",
"4 c #D6CFC9",
"5 c #D5CDCA",
"6 c #D5CDCB",
"7 c #D6CCCA",
"8 c #D7CDCB",
"9 c #D4CFCB",
"0 c #D6CECB",
"q c #D6CECC",
"w c #D7CFCC",
/* pixels */
"8---%=>%>%>%>%>%>%>%>%>%>%>%>%>%>%>%>%>%>%>%>%>%>%>%>%>%>%>%>%-8",
"88->>%%>%>%>%>%>%>%>%>%>%>%>%>%>%>%>%>%>%>%>%>%>%>%>%>%>%>--%>88",
"888-->>->%>%>%>%>%>%>%>%>%>%>%>%>%>%>%>%>%>%>%>%>%>%>%>%>>%%-248",
"4w48--%>%>%>%>%>%>%>%>%>%>%>%>%>%>%>%>%>%>%>%>%>%>%>%>%>%-->www4",
"ww29w%>->%>%>%>%>%>%>%>%>%>%>%>%>%>%>%>%>%>%>%>%>%>%>%>%---22882",
"w2888w--%>%>%>%>%>%>%>%>%>%>%>%>%>%>%>%>%>%>%>%>%>%>%>%>>-w8w8ww",
"ww8w888->%>%>%>%>%>%>%>%>%>%>%>%>%>%>%>%>%>%>%>%>%>%>%>%-8w8w282",
"82w22w82%>%>%>%>%>%>%>%>%>%>%>%>%>%>%>%>%>%>%>%>%>%>%>%>48288w8w",
"w2w292w28>->-=>%>%>%>%>%>%>%>%>%>%>%>%>%>%>%>%>%>-=->--984ww282w",
"8888w88888-->%%>%>%>%>%>%>%>%>%>%>%>%>%>%>%>%>%>->----w28w48w888",
"82w888w8882--->%>%>%>%>%>%>%>%>%>%>%>%>%>%>%>%>%>=-->8882828w92w",
"w92ww428844w>-%>%>%>%>%>%>%>%>%>%>%>%>%>%>%>%>%>-%--88w2w89w8288",
"8ww24ww8w2w28--->%>%>%>%>%>%>%>%>%>%>%>%>%>%>%>%>%>829w88ww48w2w",
"848w882ww88w88>-%>%>%>%>%>%>%>%>%>%>%>%>%>%>%>%>%>888w8w82w84w88",
"w2829ww28282848->%>%>%>%>%>%>%>%>%>%>%>%>%>%>%>%-w84828w2ww88w2w",
"888w28888www4884%>%>%>%>%>%>%>%>%>%>%>%>%>%>%>%>4428w98288928288",
"82w88882w88882w88-%>%>=%>%>%>%>%>%>%>%>%>=---%-2ww882w8w882w8w88",
"w9282ww9282ww9282->>>%==%>%>%>%>%>%>%>%>=%>%>--w82w2ww82w2ww82w2",
"8ww8w288w8488ww89---,%%%>%>%>%>%>%>%>%>%%*>,%>-48888842889w48888",
"842w8ww42ww8842ww->=%%>-%>%>%>%>%>%>%>%>>>%%>%-84w928w9882884w92",
"w2w28882w88w92w28->-%->%>->%%>%>>%>%>->%%%%=>%>8ww29w82w282www88",
"88882w8w2829w8888>-->%>>--%>>%>-%>%>->%>->*>->%8w2884888w8www2w2",
"82w84882w8w288w84-----%>----%>---->%------->>--88w8www8w88842888",
"w92ww8w9288ww42828848888w488882w48888w48848892888282w282w28w98w2",
"8ww29w8ww8824ww8484ww88w8ww29w8w8484ww882w8w882w88282w88882w8w88",
"848w28842w8w882ww8w92829848w2884ww8ww2w2ww82w2ww4w98ww4w92888292",
"w282w8w292829ww2w282w8w2w282w8w28w892888842889w4ww2w8829w4ww2ww8",
"888w2888w88w2888888w288w888w2888828298w28w988288w288w28888w2ww48",
"82w882w888w882w882w8824w82w882w82w88w4ww2w8w28288w882w8w28288w88",
"w9288w2ww428w9288w2w8w88w9288w2www4w88w28882w8w882w28882w8w882w2",
"8ww88w8ww8888ww88w8w888w8ww88w8w882928882w88882w88882w88882w8888",
"842w29842w2w842w29842w29842w2984w288w8w2ww4w92ww4w92ww4w92ww4w92",
"ww8w88ww8w88ww8w92w24892w2w292w2882w8w88w2w2w8w2w2w8w2w2w8w2w2w8",
"24892w24892w2489w888w8w88888w888w2ww82w2w48828w48828w48828w48828",
"w882w8884w82w88288w8w2w882w888w889w488888888w2988ww88888w2988ww8",
"288w28w92w8w288ww4288w28w92ww42882884w92w92w88w88928w92w88w88928",
"w2w882w2w2w882w2w882w8888ww29w88282www8882w2888w4w829w8288ww42w8",
"88288w8888288w882w8w2w2w848ww42ww8www2w28w882w2w2w8w888w2w24ww28",
"ww9w82ww8ww8w28w92824w92w282884888842888w28ww824w2w242w2w88888w8",
"24888w248928w489w88w88w8888w8ww8w28w98w2w48928888888ww8828w92w28",
"w88842w882984w8288w88884w88888w8888888889w8888w88w88ww8ww882w2w8",
"28w9ww288ww82w8w8@@X@X@@ $@@@@X@@@@@$@@@@@X@X@ 8892w2489288w8828",
"w2w288w88288w2w22@.@ @$X@XX@@X@X@X@X@X@X $@$@X.84w82w8829842ww9w",
"88882w288w2w88888.@@X$XXX$@ X@$ X@X@ $X$X$X@X@X22w8w288ww8ww2488",
"ww8w984w8842ww8w8X$X@X@$@$X$X$@ $ $X@XX@@X XX$X8w2w882w28888w2w8",
"2489w82ww9ww24898@$@$$ XX@@X@@X$X@@X $@ $@$@@X 888288w882w2w8828",
"w88288w88288w8828.X$@X@X$ $@X$@X@@X@@$X$X$@@X+ 88ww8w28ww8w28ww8",
"288w2w288w2w288w< @X$@ $X@XX@ X$$X$ X@@X$X@XX$@88928w48928w48928",
"w2w882w29w82w2w2$ @$X@@X@@X$X$ @$@ $@XX@@X$XX$@ 284829w99w9w8ww2",
"88288w888w8w888XX@X@$X $$X@ @X@XXX@XX$@ $@ @@@X$@8w488888828848w",
"ww9ww28w8w9288XX$X $ @$X$XX@@$$X@XX@$ X$X@$XX$@X@X28w8884888w282",
"2488w48984ww8X@@@X@X@XX@ @X$X@ @ $$@X@@X$X@X@ X$X@X2w92www2w888w",
"w8884w828888.@X@@X@@@X$X@X@X$ $X@$X@$ @$ @$XX$ @@XX@888448928w88",
"28w92w8w488@@@@X $$X$@ @$@X$X@@XX@$XX@X@@XX@@X@X@$@$ 848w8w829w4",
"w2w2w2w2w2 X@$$X@XX@X@$XX$ @@@X@@X @$X $X$$ @$$XX@$X@X88w2w8w2w2",
"888888888X$@XX@XX$@ $X@X@X@X$X$ X$@X@X@X@@X@X@ @ XX@X@@88w28888w",
"www988ww@XX@X@X@X$ @$X @@XX@$X$@$ $X@ @XX@$X$ $X@ @X@X$X284w92ww",
"828w888XX@$@$ X$@X@XX@$XX$@  @XXX@@XX$$@@ X@X@@XX$X$$@ @ 288w888",
"828428$@@X$X@X@X@$$X$X@@$ X$@X @@@X@X@X@X$@X@@X@@$X@X@$XX@888w2w",
"8w8w2.X@X@ @$@ $X@ @ @$XX@@X$@$X$X$ @ $X@X$@$X$ @X@ $X@X@X 8w288",
"8w82@X@@$@ $X$ @ @XXX@X@@@X$@X@@@X$X$X$ $X@ @XX@X@X@X@X@X@@X2828",
"828@$X$XXX@X@X@X$X@$@ $X$X@  $$X$@ @X@X@@XX$X$@ $ X$$@$ $X$@X8w4",
"88.@X@X@@XX@@ $XX@@ $X@$$XX@@XX@X@$X $@$ @X$$ X$@X@X@X@X@X$ @X2w",
"8X@X $@X $$@X$X@$@X$X@X@ @X$X$@ $X@X@X@X$X@@X@@X$@ $ $X$X@X@XX 2"
};
