/* XPM */
static char *ad6d0e2948394c4380e87fc9016d08dbxJ6mjvJnDq89sfno[] = {
/* columns rows colors chars-per-pixel */
"64 64 134 2 ",
"   c #604625",
".  c #664927",
"X  c #674A28",
"o  c #6A4E2C",
"O  c #704F2C",
"+  c #6D532E",
"@  c #71522E",
"#  c #78572E",
"$  c #6E5431",
"%  c #745632",
"&  c #795731",
"*  c #765A34",
"=  c #7B5933",
"-  c #7F5F38",
";  c #825D35",
":  c #846036",
">  c #83633B",
",  c #89663B",
"<  c #8D6A3D",
"1  c #906B3F",
"2  c #996F3F",
"3  c #98703F",
"4  c #856840",
"5  c #8E6D41",
"6  c #916E43",
"7  c #996E41",
"8  c #957145",
"9  c #9C7445",
"0  c #9E7847",
"q  c #957449",
"w  c #9B764A",
"e  c #97784C",
"r  c #9B794C",
"t  c #9C7D52",
"y  c #A17747",
"u  c #A07847",
"i  c #A17649",
"p  c #A37B4A",
"a  c #AA7C4B",
"s  c #A17D52",
"d  c #9F8053",
"f  c #AC824E",
"g  c #B2844F",
"h  c #A68251",
"j  c #AC8654",
"k  c #AE8955",
"l  c #AF8959",
"z  c #B48652",
"x  c #B48853",
"c  c #BC8F56",
"v  c #B18B5C",
"b  c #B08C5C",
"n  c #B28C5D",
"m  c #B58D5A",
"M  c #B88F59",
"N  c #B88F5B",
"B  c #BC8F58",
"V  c #BE8F59",
"C  c #BD8F5B",
"Z  c #B88E5C",
"A  c #B98F5D",
"S  c #B88E5E",
"D  c #B98F5F",
"F  c #BC8F59",
"G  c #BA9056",
"H  c #BD9057",
"J  c #BC9057",
"K  c #BD9059",
"L  c #BF9058",
"P  c #BC915A",
"I  c #BF905A",
"U  c #BE915A",
"Y  c #BF925B",
"T  c #BE965B",
"R  c #B9905C",
"E  c #BA915D",
"W  c #BA905E",
"Q  c #BB915F",
"!  c #BE905C",
"~  c #BE935C",
"^  c #BF945D",
"/  c #BF965E",
"(  c #BD915A",
")  c #BB9360",
"_  c #BD9361",
"`  c #BE9261",
"'  c #BE9561",
"]  c #BF9563",
"[  c #BF9764",
"{  c #BE9563",
"}  c #C2935B",
"|  c #C0935C",
" . c #C1945D",
".. c #C1935C",
"X. c #C19765",
"o. c #C09663",
"O. c #C29961",
"+. c #C19862",
"@. c #C29963",
"#. c #C49B63",
"$. c #C39865",
"%. c #C29965",
"&. c #C39A64",
"*. c #C19966",
"=. c #C29866",
"-. c #C39A66",
";. c #C29A67",
":. c #C59A65",
">. c #C49B65",
",. c #C49B67",
"<. c #C59C66",
"1. c #C69D67",
"2. c #C39A65",
"3. c #C39B68",
"4. c #C49A68",
"5. c #C59B69",
"6. c #C39E69",
"7. c #C49C68",
"8. c #C59C68",
"9. c #C59D69",
"0. c #C79C69",
"q. c #C69D69",
"w. c #C79E68",
"e. c #C69C6A",
"r. c #C79D6B",
"t. c #C49F6A",
"y. c #C69E6A",
"u. c #C79E6A",
"i. c #C79F6B",
"p. c #C69D69",
"a. c #C89F6B",
"s. c #C89F6B",
"d. c #C9A06C",
"f. c #C9A06C",
/* pixels */
"> r t t t t h t t t t t t t t t t r h t t t s t t t t t t s t t t h t t t t t t t t t t t t t t t t t t t t t t r t r t t t t > ",
"q ;.;.5.:.' [ i.i.3.@.f.f.#.:.t.s.t.3.i.i.i.s.s.s.t.s.s.s.s.d.t.3.i.5.t.t.:.:.s.s.s.s.5.s.s.s.s.5.:.:.5.s.t.5.s.t.;.o.t.;.;.t.q ",
"q ;.* r @.+ w 5.i.0.:.5.t.s.t.5.:.:.:.:.5.:.:.:.:.:.5.t.t.:.5.:.3.;.:.:.5.t.s.s.:.5.5.:.:.t.:.:.5.s.t.:.:.:.:.:.:.w + 5.r * ' q ",
"e t.r v #.w v t.t.t.:.5.0.s.s.s.0.t.t.t.t.t.t.5.t.t.:.5.5.:.t.5.3.5.t.s.s.t.:.:.t.s.:.t.t.:.s.t.:.:.s.t.5.s.t.t.s.v e #.v r X.8 ",
"e t.t.t.t.:.:.t.5.:.5.s.s.:.5.t.#.:.#.:.:.5.#.:.#.5.:.t.5.5.:.t.5.5.s.t.s.s.:.:.s.s.5.s.s.0.s.#.;.:.s.t.5.s.5.:.#.#.;.:.@.@.t.8 ",
"8 | + w :.o w :.t.s.t.:.#.:.5.:.:.s.d.s.t.t.d.s.s.s.5.t.#.:.s.:.t.:.:.5.:.t.s.s.#.:.t.5.$.t.s.;.s.t.t.:.:.:.:.s.s.e X :.0 $ ' e ",
"e 5.r n e.r n t.5.:.:.t.s.s.s.t.t.s.#.:.:.:.:.;.$.:.:.:.#.t.:.s.s.s.i.5.:.#.5.t.s.t.#.:.5.:.t.s.:.:.;.:.t.5.t.s.t.l q :.k e ;.8 ",
"5 S E N S N m m N S S ! S N N N m S S S E S C S S N S N E S N m N S E C S N m m S E E S S E S m N N S S N N m x N m m N S N S 5 ",
"- 6 6 5 6 6 5 5 - , < < , < % o @ & & # & & & o % = & & = = # o @ & & = = & & o @ = = & & & & X @ * < , , < , : 5 5 5 6 5 8 5 * ",
"t :.;.;.t.;.3.` , f z f j x p X : 2 9 7 7 7 2 & : 7 7 7 7 7 7 & : 7 7 7 7 7 7 & ; 7 7 2 7 7 7 & = h x f j g f 8 { X.@.5.;.5.3.8 ",
"t 3.:.;.s.:.t.! < k H G L L ^ j 9 g z z z z z 1 q z g z z z z , i g g z z z g 1 0 z g z z z g 1 k T c c J J L e X.;.:.s.:.t.f.5 ",
"r 3.:.t.s.;.t.` , g L c P P L P k q z z z z z 5 0 g z z g z z 1 y g z z z z z < w z z z z z 0 k ~ H c c c c c w 3.5.:.t.#.:.t.q ",
"t ;.;.t.s.$.5.` < f L H L P N L  .j p z z z z 1 9 g z z z z x 1 y x g z z z z 1 0 z z z z p k  .H G B L L c c w ;.X.5.0.:.;.t.q ",
"e ;.s.s.t.:.:.` , f c P P L H c L E j p z z z < 0 z z z z z z 1 p z g z z z z 1 w z z z p k  .c G c B L P L ! w ;.#.s.t.5.t.i.7 ",
"e 5.t.s.s.s.:.E # q L P N L L c ! L B j i z z 1 0 z z z z z z < y z g x z g g 1 0 z z w j } L c L c G B L G p * X.:.:.s.:.s.s.8 ",
"r s.:.#.:.t.t.E # & p L L P L c B c C } k i z 1 0 z x z z z g < 0 z z z z z z 1 9 z y z ^ L c N c c c c H p = : ;.@.s.t.:.t.t.q ",
"e 5.t.s.0.:.s.! & 1 # p c C c c c c G L ! k 0 1 0 g z z z z z < y z z z z z z 6 q y v | c G ! L c c B N a = y 7 [ 3.s.t.:.s.5.6 ",
"w 5.s.:.:.t.5.) = 7 a = p B N L B } ! L ~ ~ h - y g z z z z g < y z z z z z z 1 < j } c c L L ! ! c L p = 9 z 7 { 3.s.5.:.t.t.6 ",
"w t.t.:.s.t.;.E & 7 z y ; p P B B L L L L L } h q x z z z z z < y x z z z z z 6 j ~ c B P N B B L L p : 9 z g 8 { i.i.5.:.t.:.q ",
"e i.5.5.s.t.:.S & 7 z z p ; p N c B B B H c J G j w z z z x z < p z z z z z 0 k ~ H c c B B B E P p ; w z g z 8 [ f.t.X.:.t.;.7 ",
"w 5.t.5.0.0.:.E & 7 z z z a = a ! L L B c P c P ! j p z z z g 1 0 z z z z p k  .H c c B } B B L p = 7 z z z g 8 ;.t.:.#.t.5.:.8 ",
"e :.s.5.:.t.t.S & 7 z z g z a O p B P B c L ! L L L j p z z z 1 y z z z p k | ! G G L c c B } p & w z z z z g 9 ;.:.:.5.s.5.i.8 ",
"r ;.#.t.t.s.s.E & 7 z z z z a , o 0 N c L L G c L c H j y z z , 0 z z y k | L G L L L c B B p   < z z z z g z 8 ` :.t.0.s.5.5.q ",
"r t.:.5.:.5.;.C & 7 z z z z z < 1 = p P P } c N G c c } j p z < 0 z p z ^ E L c P L c P N p ; & y z z z z z z q { t.s.s.s.t.5.6 ",
"r 5.t.#.#.$.:.{ & 7 z z z z z < p a ; p L ! G G L ! c L P j p 1 0 p k L P c L c } c c N p : y , y z z g z x z 8 ;.s.s.#.t.t.t.7 ",
"t ;.5.s.s.t.@.! * 7 z z z z z < 0 z a * p L c c L P L G c } h * 4 j } N B c c L H x L p ; 9 g 1 y g z z z z z 8 5.t.;.:.:.:.i.8 ",
"e s.:.0.t.s.t.S & 7 z z z z z < y z z p = a } c c P c L L H L j w ~ L c H c E L c L a ; 9 g g , y z z z z z z 0 X.;.:.:.;.;.3.8 ",
"w t.s.:.:.:.s.) & 7 z z z z g < y z z g a & p B x P L c H c N L k p L P L N P L N p ; y g z z < i z z z z z z 8 { :.t.#.:.t.3.8 ",
"t ;.:.s.t.#.t.` & 7 z z z z g < y z x z z p ; i L G L c N c N H ! j f } L c L P p = 7 z z z z < y z x z x z z 8 ' :.s.s.s.s.:.7 ",
"r #.t.:.0.0.3.! = 7 z z z z z < i z z z z z p # 0 L P L c H P L L L j h L N ! 0 ; 7 z z z z z 1 y z z z z z z 8 X.s.t.5.t.s.t.6 ",
"t t.5.s.5.s.:.E & 7 z z z z z < y z z z g z g , + p C c c c c L G P P j p L 0 X < g z z z x g < y z z z z z g 8 ;.5.;.#.;.i.s.8 ",
"r t.5.5.5.t.0.S & 7 z z z z z < y g x g z z x 1 < * p L c c c c L G L ! k 8 = * y z z z z x x < y z z z z z g 8 ;.@.#.@.;.3.i.8 ",
"r t.:.s.5.:.t.E = y z z z g z , y z z z z z x 1 q 8 8 a P c H P L ! P P L j 6 , 0 z z z z z z < 0 z z z z z z 9 ' :.t.0.s.:.5.8 ",
"r s.s.5.#.0.t.S = 7 z z z z z 1 y z z z z z z < < j ^ p p L c L P G L L c ! h ; 0 z z z z z z < y z x z z z g 8 ' 5.s.s.s.5.;.8 ",
"t 5.t.:.:.t.5.E & 7 z z z z g 1 0 z z z z z z 7 f ~ N } p f L P c P c P G c ! h q g g z z z z < y z z z g z g 8 [ t.s.t.5.t.#.8 ",
"e :.:.5.s.s.3.E = 7 z z z z z 1 0 z z g z z w k ^ G c P P f a N L L c L L c ! L k 0 z z g z x < y z z z x z g 8 ;.i.:.5.:.t.3.8 ",
"e :.s.s.t.:.:.` = 2 z z z z z , y z z z z p j ^ L P c L c B p h L ! G L L L P ! ~ j p j z z z < 0 z z z z z g q ;.s.:.t.s.t.s.7 ",
"t s.s.5.;.5.s.' = 7 z z z z z 1 y z z z p l | L L G c c c c L 5 p ! L L L P L P L P j p z z g , y g g z z z z 8 5.t.;.5.t.:.i.6 ",
"t #.;.#.:.i.t.S & 7 z z z z z < 0 g z 0 j  .c c c G L c B c i   + p ! H G ! c L H L P j 0 z z < y x x g z z z q ;.s.:.:.3.5.i.8 ",
"r ;.:.5.s.:.0.` & 7 z z z z z < y z p k ^ P G L c c c c c p ; & 6 : p P B L G P G ! L L j a z < 0 x z z z z z 7 X.t.:.t.5.3.i.8 ",
"e ;.t.s.#.t.s.o.& 7 g z z z z < 0 p k ^ G c c L c c L P p : 9 < y a : p c c L L c c M G P j p < p z z z z z z 8 X.s.5.t.0.:.s.q ",
"e s.s.:.:.s.s.S & 7 z z z z z 1 4 j } c c c c c c c P p ; 8 g < 0 z a ; p c c ! L P c c H ! h = y z x z z z z 8 ' s.t.:.:.s.s.6 ",
"e s.s.:.0.t.:.S & 7 z z z z z 1 k  .N H c B L P G c a ; 9 g z < p z g p = a L B L L c L P c c j 9 g z z z z z 8 ' #.s.:.:.5.s.8 ",
"t t.:.5.s.t.:.' & 9 z z z z w v | L L c c c B P P p = y g z z 1 y g x z j = p B ! B c H G L P P j y z z z x z 8 X.;.s.t.t.s.i.6 ",
"t 5.$.t.s.:.t.` & 7 z z x p k L L B B c c c L L p ; 9 g z z g 1 y g z g x a = p G G ! P G L L L } j a z z z z q ;.:.s.s.s.0.5.6 ",
"r #.:.s.:.:.s.` = 7 z z p k ! } N } B B c c B r ; 9 g z z z g 1 y x z z z z a & 0 c L G L c L B c B j p z z z 7 { :.:.s.s.t.3.7 ",
"r @.5.s.5.#.s.) = 2 z 0 k L N B c c B } L L p X < z z z z z g 1 y z z z z z z , + 0 c L c S B } L B N j 0 z z q X.t.@.t.t.;.;.8 ",
"r ;.s.t.:.t.s.S & 2 w k ~ L L L c c N G c p = = y z z z z z z 1 y x x z g x x 1 < & p ! P c c H B c N L k y z 7 { s.#.@.#.;.3.8 ",
"r ;.t.5.:.t.0.B & , l ~ G P c c L L ! P p ; 9 1 0 z z z z z z 1 y x z z z x g 1 y a = p E L L B L L G N L j 0 q ` 5.s.o.:.t.s.6 ",
"r ;.t.:.:.0.5.S = s L P L L c L L c P 0 = 9 z 1 9 z z z z z z 1 y z z z z x z 1 9 z a & 0 C L c L ! c H c ^ j 4 { :.s.s.s.s.:.6 ",
"e :.s.:.#.t.t.D < M L G H c L P c N p ; 7 g z 1 w z z z z z z < y z z z z z g 1 i z x p ; p N c G E L P L L | e [ ;.t.t.s.:.:.q ",
"r ;.s.s.:.t.s.' , f G L L N L c c 0 ; y g z z 1 w z z z z z z , y z x z z z z 6 q z z z a ; p B L L L c H L B 0 ;.#.#.:.:.#.t.6 ",
"t X.s.s.X.5.s.' , f c L G L c N a = 7 j z z z < 9 z z z z z z < y z z z z z x 1 9 z g z z p # a L P L G L L L r ;.s.:.:.:.s.t.7 ",
"e ;.t.s.:.#.t.` < f c L H L L p = y z z z z z < 0 g z g x z z 1 y z z z z z z 1 0 g z z z z a O p L L c L ! L e ' t.s.s.t.5.5.6 ",
"r :.:.s.5.:.5.o.< f L c c c 0   1 z z g z z z < 0 z z z z g z < w z z z z g z 6 i z x z z z z > o 0 E L P c L 0 X.;.t.s.t.:.t.q ",
"4 s r s p t t r : q w w 0 e * % , 8 9 8 8 8 q > , 8 8 8 9 9 q ; 5 7 7 9 q q 7 > , 8 8 7 6 9 q > - % q 0 w e 0 4 r r s s s t t - ",
"q t.e.e.i.i.5.5.;.3.i.e.e.3.3.3.e.e.e.e.[ f.i.3.[ e.e.f.3.3.;.;.3.3.t.5.5.5.3.3.;.3.t.5.;.3.t.e.3.t.;.;.e.t.3.;.t.i.i.3.;.[ 3.q ",
"8 [ r n t.e n t.3.;.:.5.e.i.3.3.:.:.[ 3.3.f.t.#.e.f.f.#.>.:.:.s.s.i.t.s.5.s.t.t.:.:.t.0.t.t.;.:.;.:.:.s.t.t.;.:.5.n w ;.k w 3.e ",
"e _ + w X.X w t.f.s.5.#.;.:.t.i.s.s.s.t.f.3.>.#.f.e.:.;.>.t.s.s.t.;.o.:.5.s.s.s.:.;.#.s.s.s.:.s.s.t.t.s.5.;.:.s.s.w o 5.r $ ` q ",
"e i.t.:.:.;.;.:.#.t.s.t.s.t.5.:.:.t.:.:.[ >.;.t.f.3.@.;.:.t.s.5.:.5.s.#.#.:.5.s.5.:.#.5.s.s.s.5.:.:.:.:.5.5.s.s.5.:.X.t.5.@.;.e ",
"q 3.t n 5.e l :.:.;.:.t.t.s.s.0.s.:.t.:.>.@.>.f.f.3.f.>.;.#.d.s.#.:.s.t.;.#.s.s.t.:.:.s.t.s.:.:.:.t.5.s.5.t.s.s.s.v w t.v e @.e ",
"q { & e 5.$ r t.:.5.:.:.:.t.:.5.t.s.s.0.3.>.;.>.3.f.f.3.:.;.t.t.t.#.:.#.:.s.t.t.:.:.t.t.:.:.t.t.t.5.:.#.:.:.:.5.t.r + #.r * ;.8 ",
"w t.{ X.:.{ 5.s.i.t.#.t.t.#.@.#.#.@.:.t.i.t.#.>.>.f.f.f.t.:.#.#.s.s.f.t.s.s.:.5.t.s.t.:.t.:.@.:.5.5.t.s.t.t.:.t.#.$.;.t.;.' 5.8 ",
"= 6 5 6 5 < 5 6 6 6 6 6 < 5 < 1 < 1 < 5 < 6 5 5 < < 5 5 8 6 6 < 1 < 1 < < < 6 6 6 < < 6 < 6 6 < 6 6 6 6 6 6 6 1 1 < 1 6 < 6 6 * "
};
