/* XPM */
static char *fb0aedb16ea944edfa48d288ceac5ad1AtKBub49BbMBMG9a[] = {
/* columns rows colors chars-per-pixel */
"64 64 178 2 ",
"   c #5F4524",
".  c #5A4C3F",
"X  c #604625",
"o  c #614628",
"O  c #654B2B",
"+  c #6A4E2C",
"@  c #6E532F",
"#  c #70532E",
"$  c #6F5532",
"%  c #66543E",
"&  c #6C563E",
"*  c #6E593E",
"=  c #735532",
"-  c #795731",
";  c #755934",
":  c #7B5933",
">  c #765C3C",
",  c #795D38",
"<  c #7C603B",
"1  c #5D4F42",
"2  c #574F4B",
"3  c #584F4A",
"4  c #5D5144",
"5  c #57504A",
"6  c #5A524D",
"7  c #5D5552",
"8  c #5E5853",
"9  c #635444",
"0  c #685743",
"q  c #6C5A44",
"w  c #64574B",
"e  c #66594E",
"r  c #6A5B4D",
"t  c #745D44",
"y  c #795F44",
"u  c #715F4B",
"i  c #605652",
"p  c #615955",
"a  c #6A5E52",
"s  c #645D5A",
"d  c #685F5A",
"f  c #766146",
"g  c #7C6245",
"h  c #75624C",
"j  c #79644B",
"k  c #7F6A4F",
"l  c #6D6155",
"z  c #66615D",
"x  c #6A625C",
"c  c #736453",
"v  c #796752",
"b  c #7C6953",
"n  c #726559",
"m  c #74685D",
"M  c #7A6959",
"N  c #676360",
"B  c #6B6562",
"V  c #6F6A66",
"C  c #6F6A69",
"Z  c #706760",
"A  c #736C66",
"S  c #796F66",
"D  c #716B68",
"F  c #786F68",
"G  c #7C7165",
"H  c #777068",
"J  c #7C7168",
"K  c #815C35",
"L  c #815E38",
"P  c #856137",
"I  c #83633B",
"U  c #89663B",
"Y  c #8E6A3D",
"T  c #906B3F",
"R  c #996F3F",
"E  c #856840",
"W  c #8E6D41",
"Q  c #846B4D",
"!  c #916E43",
"~  c #996E41",
"^  c #957145",
"/  c #9C7445",
"(  c #9E7847",
")  c #957449",
"_  c #9B764A",
"`  c #97784C",
"'  c #9B794D",
"]  c #816D53",
"[  c #816F59",
"{  c #857055",
"}  c #8B7456",
"|  c #85715A",
" . c #8E7559",
".. c #957952",
"X. c #9C7D52",
"o. c #907758",
"O. c #A17747",
"+. c #A07847",
"@. c #A07749",
"#. c #A37A49",
"$. c #AA7C4B",
"%. c #A17D52",
"&. c #837464",
"*. c #8A7862",
"=. c #807468",
"-. c #9F8054",
";. c #9D8058",
":. c #AE804E",
">. c #B2844F",
",. c #A38255",
"<. c #AE8857",
"1. c #A18158",
"2. c #AF895A",
"3. c #B48652",
"4. c #B58854",
"5. c #B38B58",
"6. c #B68D59",
"7. c #B78D5B",
"8. c #B78E5A",
"9. c #B18B5C",
"0. c #B08C5C",
"q. c #B28C5D",
"w. c #B28C5C",
"e. c #B88F5B",
"r. c #B88F59",
"t. c #B88E5C",
"y. c #B98F5D",
"u. c #B98F5F",
"i. c #B98F5D",
"p. c #B9905C",
"a. c #BA915D",
"s. c #BA905E",
"d. c #BB915F",
"f. c #BA915E",
"g. c #BB9360",
"h. c #BD9361",
"j. c #BE9261",
"k. c #BE9561",
"l. c #BF9563",
"z. c #BF9764",
"x. c #BE9563",
"c. c #C19765",
"v. c #C09663",
"b. c #C29961",
"n. c #C19862",
"m. c #C29963",
"M. c #C49B63",
"N. c #C29965",
"B. c #C39865",
"V. c #C39A64",
"C. c #C19966",
"Z. c #C29866",
"A. c #C39A66",
"S. c #C29A67",
"D. c #C49B65",
"F. c #C59A65",
"G. c #C49B67",
"H. c #C59C66",
"J. c #C69D67",
"K. c #C39A65",
"L. c #C39B68",
"P. c #C49A68",
"I. c #C59B69",
"U. c #C39E69",
"Y. c #C59C68",
"T. c #C59D69",
"R. c #C69D69",
"E. c #C79C69",
"W. c #C79E68",
"Q. c #C69C6A",
"!. c #C49F6A",
"~. c #C79E6A",
"^. c #C69E6A",
"/. c #C69D69",
"(. c #C89F6B",
"). c #C89F6B",
"_. c #C9A06C",
"`. c #C9A06C",
/* pixels */
"I ' X.X.-.X.-.-.X.X.' -.X.X.X.X.X.' ,.X.X.X.%.X.X.X.X.X.X.%.X.X.X.X.X.X.%.X.X.X.X.X.X.X.X.X.X.X.X.X.X.X.X.X.X.X.X.X.X.X.' X.X.< ",
") A.A.I.D.h.A.T.T.A.D._.`.H.H.I.(.(.T.(.(.T.(.(.(.T.(._.(.(._.(.T.(.T.T.T.I.H.T.(.(.T.(.T.(.(.(.I.D.D.D.(.I.I.T.I.A.h.!.!.z.T.) ",
") A.; ' D.@ _ T.T.T.H.T.(.T.T.T.D.m.D.D.D.D.D.D.D.D.D.T.(.D.I.D.D.D.D.I.T.T.`.(.I.H.T.H.T.D.D.D.T.T.T.I.D.D.D.D.D._ $ A.' - v.) ",
"` !.' 5.D._ 5.(._.T.D.T.(.(.(.(.T.I.(.(.(.T.(.I.(.T.I.T.D.T.T.T.I.T.T.(.(.(.D.D.I.(.D.T.T.(.(.Q.D.D.(.(.(.D.(.(.(.5._ H.5.' A.) ",
") ).`.!.T.A.T.T.I.D.I.(.(.D.I.I.m.D.D.D.D.D.D.D.m.I.I.T.I.T.I.T.I.T.T.(.(.(.D.I.(.T.D.(.(.I._.T.D.D.(.I.T.(.T.T.V.m.A.D.V.V.T.) ",
") h.@ _ A.+ ) A.T.(.T.D.m.D.T.H.T.(.(.(.Q.(.(.(.(.(.T.D.H.D.(.D.(.D.D.I.D.T.(.T.H.I.(.I.D.(.T.D.I.(.T.A.D.D.T.T.T.) @ H._ @ z.) ",
"` I.' q.T.' 9.T.I.D.D.(.(.(.(.(.I.T.D.D.D.I.D.D.D.D.D.I.D.D.T.T.(.(.(.T.D.m.I.T.T.(.D.D.T.D.D.T.(.D.A.I.T.I.(.T.H.2.) m.<.` A.) ",
"W e.p.e.e.e.8.8.8.i.i.i.i.e.8.e.7.i.7.i.i.i.i.i.i.7.i.i.i.e.e.8.e.i.p.i.i.e.8.i.i.i.d.i.i.i.e.8.e.8.i.7.i.e.7.4.8.8.6.e.e.e.e.W ",
", ! W W ! ! W W > y g y t f = + - - - - K - - + # - - K - - - + # - - - - - - + # - - : - : # + @ $ h h u c c > W W W ! W ^ W ; ",
"X.T.A.A.T.A.L.h.y b M m Z Z a O L / ~ ~ ~ ~ R - U ~ ~ ~ ~ ~ R - P ~ ~ ~ ~ ~ ~ - P ~ ~ R R ~ ~ : : { V D V C C c z.c.m.I.A.T.D.^ ",
"X.T.I.A.(.D.T.j.> n M n x B B x ^ $.3.3.3.3.3.T / 3.$.4.3.3.>.Y @.>.3.3.3.3.>.T / >.3.3.3.3.3.T -.J V V V V V v A.A.I.(.A.T.`.W ",
"' T.L.T.(.A.T.j.t u l x l x x N l ) 3.3.3.3.3.T / >.3.3.3.3.4.T O.>.3.3.3.3.>.T / >.3.4.3.3.( 1.H V V V V V V v z.L.T.T.m.!.T.) ",
"' D.I.T.T.D.D.j.t p a a x d x x N l ' 3.3.3.3.T / 3.3.3.4.3.4.U +.3.>.3.3.3.3.T ( 3.3.3.3.#.,.J C V V V B D D c A.D.I.(.H.D.).) ",
"` I.T._.(.D.D.j.& w e p p a s d z N c ( 3.4.3.T / 3.3.3.3.3.4.T @.3.>.3.3.4.>.T ( 3.3.3.@.;.J V V C V V D V C j c.D.T.T.D.T.T.) ",
"..(.T.(.(.(.D.i.@ 9 w 7 8 p p s d z z c _ 3.3.T / 3.3.4.3.>.3.T +.3.>.4.>.>.3.T ( 3.3.( ,.G V V V D C V V V c = A.A.D.(.D.(.(.^ ",
"' T.D.H.I.(.D.i.- - 9 6 6 7 8 p p s z x x @.3.! / 3.4.3.3.3.3.U +.3.3.4.3.3.4.T / 3.@.1.=.D V V V V D V D n : I A.A.(.(.D.T.T.) ",
"' D.T.(.W.D.I.d.- T - 9 3 6 i 7 p p s d N d ( ! _ 3.3.3.3.3.3.T +.3.3.3.3.4.3.Y ^ +.;.H D V V V V V V D n K O.~ Z.I.(.I.D.(.T.! ",
"_ I.(.D.D.(.D.j.K ~ $.# 9 3 6 7 7 p s p d N a , ( 3.>.3.3.3.3.T +.4.4.>.3.3.4.Y Y -.J H D C C C C D D c K @.$./ v.I.(.I.D.T.(.! ",
"_ (.T.T.(.T.A.g.- ~ 3.O.K 1 3 6 7 p p p s d N a ^ 3.3.3.3.3.3.U +.3.>.4.3.>.3.^ -.J D C D C D C D D c L / $.4./ z.I.T.D.D.(.D.! ",
"` T.T.T.(.T.D.i.- ~ 3.3.$.: 9 3 3 7 7 p p s d x n ) 3.3.3.3.3.T ( 3.3.3.4.3.( ,.G V V V D C V C D c L @.>.3.3.^ c.(.(.D.D.I.D.) ",
"' T.T.T.T.T.D.i.- ~ 3.>.3.#.- 1 3 3 7 7 8 s z z N l #.3.3.3.3.T @.>.3.3.4.#.,.=.C V V C C D D D M : ^ 3.>.3.>.^ A.(.I.D.T.(.D.) ",
"' D.(.I.I.(.D.d.- ~ 4.3.3.3.#.+ 1 7 6 7 8 8 s s z B l #.3.3.3.Y +.4.3.3.#.1.H C C H C C D V S c - / 3.3.3.3.3.^ A.D.D.T.(.I.I.^ ",
"' A.D.T.T.(.(.p.- ~ 3.4.3.3.>.U + 1 3 6 7 7 p s s z B n ) >.3.Y +.3.3.O.,.J V V D D D D D S v X Y >.3.3.3.3.3.^ j.A.T.T.T.I.I.^ ",
"' I.D.D.T.I.A.j.- ~ 3.3.3.3.3.Y ! - 1 2 7 7 7 s s d N B n @.>.Y @.3.#.X.G C V V V D D D S v L - O.3.3.>.3.3.3.^ z.T._.(.(.Q.L.^ ",
"' T.(.m.m.D.D.h.: ~ 3.3.3.3.3.Y @.$.: 1 3 7 p p p d N N B n ' U ( #.;.A V V V D D A A S M K O.U O.>.4.>.3.4.3.^ A.).T.T.T.(.T.^ ",
"..D.(.(.(.T.m.d.: ~ 3.3.3.3.3.Y @.3.$.= 1 7 7 7 p s d B B C x : Y -.l s z B V D D A A b : / 3.U O.>.3.3.3.4.>./ L.T.H.m.D.D.(.^ ",
"' (.D.H.T._.T.i.- R 3.3.3.3.3.Y @.3.3.#., 4 6 7 p p s N B B B a f l 8 8 s z N B D A M : / 3.>.T O.3.3.>.3.3.4.^ A.A.A.A.m.D.D.) ",
"_ T.(.D.I.H.(.g.- ~ 3.3.3.3.>.Y @.3.3.3.$.- 9 7 8 s s N B B B B a e 8 7 7 p z x D v K / 3.3.3.U O.4.3.3.3.3.3.^ z.A.H.T.I.T.v.) ",
"..D.D.(.T.D.I.h.- ~ 3.3.3.3.3.U O.3.3.3.3.#.= 1 7 p s N B B B B z a e p 8 p p d u , ~ 3.3.3.3.Y @.3.3.4.4.3.3.^ z.H.(.(.`.W.H.^ ",
"' (.(.H.I.(.D.d.- ~ 3.3.3.3.3.Y ( 3.3.3.4.4.$.# w p p N N B C B B B a p p 7 p w - / 3.3.3.3.3.Y O.3.3.3.3.3.4.^ c.(.T.I.T.(.T.! ",
"' T.I.T.D.(.I.e.- ~ 3.3.3.3.3.Y / 3.3.3.3.3.3.U O w s d N B B C V V B a r p w o Y 3.3.3.3.4.>.T +.3.3.3.3.3.3.^ A.D.D.D.A.T.`.^ ",
"' T.T.(.I.T.(.i.- ~ 3.3.3.3.3.Y O.3.3.3.3.3.4.T W - i s d B C B B V V B a q : - / 3.3.3.3.4.3.Y +.3.3.3.3.4.>.^ h.A.m.m.A.D.(.) ",
"X.T.D.(.I.D.(.p.- ~ 3.3.4.>.3.T O.3.3.3.3.4.3.T / R t p p x B B B V B C B a ! U _ $.t.3.3.3.3.R O.3.3.3.3.3.3.^ h.H.T.(.T.D.D.^ ",
"' (.(.I.D.(.T.i.K ~ 3.3.3.4.3.U O.3.3.3.3.3.4.T U } 6 0 p s N N V B B B B N a , _ 3.3.3.3.3.$.T O.3.4.3.3.3.>.^ v.T.`._.(.(.D.^ ",
"' I.(.D.D.(.T.p.- ~ >.3.>.3.3.Y @.4.3.3.3.4.3.T j p 7 7 w r p N N B B B B N z a ^ 3.3.$.3.3.3.T O.3.3.3.3.3.>.^ A.`.T.T.T.(.D.^ ",
"_ D.D.I.(.T.T.p.: ~ 3.4.3.4.3.Y O.3.3.4.>.>.^ v z 8 7 7 7 w e p d z N z N x N z c @.3.3.3.3.3.T O.3.3.3.3.4.3.^ z.T.T.T.T.T.T.! ",
"' D.T.).T.I.D.j.: ~ 3.4.3.3.3.Y O.3.>.3.4.#.Q x s s s 8 7 7 w e p s d x d s N z N d #.3.3.3.$.T O.3.3.3.3.3.3.^ L.(.I.D.T.T.(.! ",
"X.).T.I.c.I.(.h.- ~ 3.4.3.3.3.Y O.>.3.3.+.} x x x z z s p 7 7 % w 8 p p p d s s d d d @.4.3.3.T O.3.>.3.3.3.3.^ I.T.D.I.(.D.(.^ ",
"X.T.I.A.D.(.I.i.- ~ >.3.3.3.3.Y O.3.3./ { z x B B B B s p p 0 X + 4 7 7 p p p s s s d l _ 3.4.T O.3.4.>.3.3.3.^ A.T.D.I.I.D.(.) ",
"_ D.D.T.(.D.(.j.- ~ 3.4.3.3.3.Y O.3.@.] V B B x B B B x d r : - ~ , 1 7 7 7 8 8 p s s s a @.$.W +.3.3.3.3.3.3.~ A.(.D.T.I.I.(.! ",
"` A.(.(.m.(.(.j.- ~ :.3.4.4.3.Y ( ( { Z V V B B B B Z B u L O.T @.$., 9 6 6 6 7 7 8 p p s a _ W O.4.3.4.>.3.>./ z.T.T.I.T.T.(.^ ",
"` `.(.D.D.(.(.p.- R 3.>.3.4.3.Y W ..D B V B V D Z A m h : / $.U O.3.$.- 4 6 6 7 6 7 8 p s s a - O.$.4.3.3.3.3.^ z.(.(.H.H.T.T.^ ",
"` (.(.D.(.T.D.i.- ~ 3.3.4.3.3.W | C V V V V Z Z A m c K ~ 4.3.T @.3.3.$.: 4 3 6 6 6 7 7 8 p s s / >.3.3.4.3.4.~ z.H.T.D.D.T.(.) ",
"..(.D.I.(.T.H.h.: ~ 3.3.4.>./ | V V V D V D D S A j K @.3.3.4.T @.3.3.3.:.: 1 2 6 6 6 7 7 8 8 8 r ^ >.4.3.4.4.^ c.A.(.T.I.(.(.! ",
"X.I.D.(.(.D.T.v.: R 3.3.4.#. .A C V V V A S A A v K ~ 3.3.3.3.Y +.3.>.3.4.$.- 1 2 2 6 6 6 7 7 8 p a @.3.4.4.3.^ A.D.T.(.(.I.I.^ ",
"' A.D.(.D.D.(.j.: R 3.3.#. .H V D V V S S A G j - O.4.3.3.3.$.Y +.4.3.>.4.3.$.# 1 2 6 6 6 6 7 7 p p a ' >.3.3.~ A.H.H.(.(.(.D.! ",
"' v.I.T.D.T.(.g.: R >._  .C H V D V S D S G k O T 3.3.3.4.4.>.T @.4.>.3.3.3.3.U O 1 2 2 5 5 6 7 7 i p a / 3.3.^ z.T.m.(.T.I.A.^ ",
"' A.(.T.D.(.T.i.: ^ ( M H C C V D S D G G ] : : O.3.3.3.3.3.4.Y +.4.4.4.3.3.4.! U - 4 5 2 5 6 6 6 7 i p p @.>.^ z.T.m.m.A.D.T.! ",
"' A.T.T.D.T.T.d.- U } C C D V D Z J G =.] : @.U / 3.3.3.3.3.3.Y O.4.3.3.3.3.>.T @.$.: 1 2 2 2 6 6 6 7 7 8 e ( ^ v.E.T.m.H.T.(.^ ",
"' A.T.H.D.(.T.p.= ] C C V D D S S S G b - / 3.T / 3.3.3.>.4.3.T O.3.>.3.3.4.4.T ( 3.$.= 1 2 2 3 6 6 2 7 8 7 p I h.D.`.(.`.T.D.! ",
"' I.`.H.m.T.).u.f S C V D D S S S &.Q : R 3.3.T ( 4.3.3.4.4.>.Y O.3.3.3.3.3.3.T _ 3.3.#.: 1 5 3 2 6 7 2 7 7 s q c.A.H.T.T.D.A.^ ",
"' D.T.(.D.T.).g.j A V S D S S G &.b K O.>.3.3.T ( 3.3.4.3.3.3.T O.3.4.3.3.3.3.T / 3.3.3.$.: 1 2 2 2 2 6 6 7 7 q A.A.A.A.D.D.T.^ ",
"..D.(.(.B.I.(.x.g D D S G G G &.] : / >.>.4.3.T / 3.3.3.3.3.3.U O.3.4.3.4.>.4.T / 3.>.3.3.#.- 4 2 2 3 3 3 6 7 q A.(.T.D.D.T.(.! ",
"' D.T.(.D.D.(.h.g S G G G &.*.] - / >.3.3.4.3.T / 3.3.3.3.3.3.T O.3.3.3.4.3.3.T ( 3.3.3.3.3.$.+ 3 2 3 3 5 5 6 0 h.T.(.(.(.T.I.) ",
"' m.D.(.D.B.D.j.g G &.&.&. .Q X T 3.3.3.3.3.3.T / 3.3.3.3.4.>.T O.4.3.3.4.3.3.! / 3.3.3.3.3.3.E O 1 2 3 5 3 6 q A.m.T.T.(.D.I.^ ",
"E %.' %.%.%.%.' < Q { Q Q Q ; - Y / ^ ^ ^ ^ ^ < Y ^ ^ ^ ^ ^ ^ P Y ^ ! ~ ^ ^ ^ I U ^ ^ ~ ~ ) ~ I K = 9 0 0 0 0 * X.' ,.%.%.' %.< ",
") Q.U.U.`.U.T.T.A.!.).U.).L.L.L.U.L.).I.L.T.).L.L.U.).T.!.!.A.D.I.I.T.I.T.T.!.A.A.L.T.I.L.L.!.U.L.!.A.!.z.U.`.z.H.).U.L.L.A.L.) ",
") c.X.5.).' q.T.A.A.H.T.Q.).L.L.D.I.L.A.T.T.T.D.Q.).).T.A.D.T.`.(.(.T.(.I.(.T.T.D.D.T.(.T.I.I.D.A.A.L.`.`.`.z.V.).2._ A.<.) !.) ",
") h.$ ) z.+ _ T.T.(.T.m.A.I.I.).(.(.T.(.(.A.m.H.).).D.D.m.T._.T.T.D.A.D.T.T.(.(.D.D.D.(.(.T.T._.T.(.T.T.!.D.V.`.)._ + I._ $ j.) ",
"` T.A.A.!.z.A.m.T.T.(.(.T.T.I.A.D.T.H.T.I.A.A.T.).L.m.A.A.T._.T.D.I.T.I.D.I.T.(.(.m.m.T.(.(.(.T.D.A.D.D.D.!.V.`.T.A.L.T.T.A.A.) ",
") D.X.9.Q.' 2.A.A.A.T.T.(.(.T.(.T.T.H.H.A.A.V.T.).T.T.I.D.!.T.T.m.D.`.T.D.I.(.(.T.D.D.(.(.T.I.D.I.T.T.(.`.`.`.`.`.2.` `.q.' z.) ",
") z.- ' I.@ ' T.D.!.D.D.D.T.T.T.H.`.`.T.T.H.V.A.Q.).T.T.D.D.!.T.T.H.H.H.D.(.(.T.T.H.(.T.T.H.T.T.T.T.D.D.z.z.z.`.`.' @ V.' - D.) ",
"_ H.z.c.A.z.I.(.(.T.H.D.H.V.m.m.V.V.H.`.(.T.H.m.T.T.`.(.`.D.H.H.(.`._.T.(.(.D.D.T.T.T.H.H.D.H.H.T.I.T.(.`.`.D.`.m.z.z.`.A.z.!.) ",
", ! W ! W Y W ! ! ! ^ Y W T T T Y Y Y Y Y ! ! ! Y Y ! ! T ^ Y Y T Y Y Y Y Y ! ! ! W Y Y ! W Y T ! ! ! ! ! ! T T Y Y T ! Y W Y : "
};
