/* XPM */
static char *_35973168fd14c38edbae358d795b6457AmKBfH4iCejXeQX[] = {
/* columns rows colors chars-per-pixel */
"64 64 143 2 ",
"   c #604625",
".  c #664927",
"X  c #674A28",
"o  c #6A4E2C",
"O  c #704F2C",
"+  c #6D532E",
"@  c #71522E",
"#  c #78572E",
"$  c #6E5431",
"%  c #745632",
"&  c #795731",
"*  c #765A34",
"=  c #7B5933",
"-  c #7F5F38",
";  c #7E776B",
":  c #7E7A6F",
">  c #7D7D7D",
",  c #825D35",
"<  c #846036",
"1  c #83633B",
"2  c #89663B",
"3  c #8D6A3D",
"4  c #906B3F",
"5  c #996F3F",
"6  c #98703F",
"7  c #856840",
"8  c #8E6C41",
"9  c #916E43",
"0  c #996E41",
"q  c #957145",
"w  c #9C7445",
"e  c #9E7847",
"r  c #957449",
"t  c #9B764A",
"y  c #97784C",
"u  c #9B794C",
"i  c #9C7D52",
"p  c #A17747",
"a  c #A07847",
"s  c #A17649",
"d  c #A37B4A",
"f  c #AA7C4B",
"g  c #A27E51",
"h  c #80776C",
"j  c #81786D",
"k  c #9F8053",
"l  c #A7824E",
"z  c #AE834E",
"x  c #B2844F",
"c  c #A68151",
"v  c #AB8653",
"b  c #AE8955",
"n  c #AF8959",
"m  c #B48652",
"M  c #B48853",
"N  c #BC8F56",
"B  c #B18B5C",
"V  c #B08C5C",
"C  c #B28C5D",
"Z  c #B58D5A",
"A  c #B88F59",
"S  c #B88F5B",
"D  c #BC8F58",
"F  c #BE8F59",
"G  c #BD8F5B",
"H  c #B88E5C",
"J  c #B98F5D",
"K  c #B98F5F",
"L  c #BC8F59",
"P  c #BA9056",
"I  c #BD9057",
"U  c #BC9057",
"Y  c #BD9059",
"T  c #BF9058",
"R  c #BC915A",
"E  c #BE915A",
"W  c #BF905A",
"Q  c #BF925B",
"!  c #BE965B",
"~  c #B9905C",
"^  c #BA915D",
"/  c #BA905E",
"(  c #BB915F",
")  c #BE905C",
"_  c #BE935C",
"`  c #BF945D",
"'  c #BF965E",
"]  c #BD915A",
"[  c #81817F",
"{  c #BB9360",
"}  c #BD9361",
"|  c #BE9261",
" . c #BE9561",
".. c #BF9563",
"X. c #BF9764",
"o. c #BE9563",
"O. c #C2935B",
"+. c #C0935C",
"@. c #C1945D",
"#. c #C1935C",
"$. c #C19765",
"%. c #C09663",
"&. c #C29961",
"*. c #C19862",
"=. c #C29963",
"-. c #C49B63",
";. c #C39865",
":. c #C29965",
">. c #C39A64",
",. c #C19966",
"<. c #C29866",
"1. c #C39A66",
"2. c #C29A67",
"3. c #C59A65",
"4. c #C49B65",
"5. c #C49B67",
"6. c #C59C66",
"7. c #C69D67",
"8. c #C39A65",
"9. c #C39B68",
"0. c #C49A68",
"q. c #C59B69",
"w. c #C39E69",
"e. c #C49C68",
"r. c #C59C68",
"t. c #C59D69",
"y. c #C79C69",
"u. c #C69D69",
"i. c #C79E68",
"p. c #C69C6A",
"a. c #C79D6B",
"s. c #C49F6A",
"d. c #C69E6A",
"f. c #C79E6A",
"g. c #C79F6B",
"h. c #C69D69",
"j. c #C89F6B",
"k. c #C89F6B",
"l. c #C9A06C",
"z. c #C9A06C",
"x. c #7F7F81",
"c. c #817F80",
"v. c #808080",
/* pixels */
"1 u i i i i c i i i i i i u k i i i g i i i i i i i g i i g i i i c i i g i i i i g i i i i i i i i i i i i i i i i u i i i i - ",
"r 2.2.q.2. .X.g.e.q.4.l.z.6.e.e.e.j.e.j.j.j.j.j.j.e.g.l.j.j.j.e.g.g.e.e.e.e.6.j.j.j.e.g.e.j.j.j.q.4.4.4.j.e.y.q.q.2. .6.2.2.e.y ",
"r 2.* u -.+ u e.e.e.6.e.j.j.e.e.4.-.4.4.4.4.4.4.4.4.q.e.e.j.q.4.q.2.2.4.e.e.j.j.q.e.e.e.e.4.4.q.e.j.e.q.4.4.4.4.4.y @ 2.u *  .r ",
"y w.u B -.t B j.l.e.6.e.e.j.j.j.q.j.q.j.e.j.e.j.j.e.e.e.e.4.q.j.2.q.e.j.j.e.4.4.e.j.4.e.j.q.j.j.4.4.j.e.j.q.j.4.j.B u 6.B u 2.r ",
"r j.e.e.z.6.6.e.q.4.4.j.j.q.4.e.4.4.4.4.4.q.4.4.4.q.e.e.q.e.q.4.e.4.q.j.l.j.4.q.j.e.q.j.j.y.j.e.4.q.j.q.j.4.e.j.-.-.2.4.-.-.4.r ",
"q  .@ y 2.o r q.e.j.j.e.4.4.e.e.e.j.j.j.j.j.j.j.e.j.q.q.7.e.j.4.j.q.4.4.q.e.j.j.6.q.j.6.4.q.j.4.e.j.e.2.4.4.q.e.q.y o 2.u +  .r ",
"y e.u C e.u n e.q.4.q.e.j.j.j.j.q.e.4.4.4.4.4.4.4.4.4.4.4.4.j.7.j.j.e.j.2.-.6.e.e.j.6.4.q.4.q.e.e.4.4.q.j.q.e.4.4.n q 2.B y 2.r ",
"8 J ^ S ^ S S S S J J G J S S S Z H J J J J J J K J J J S S Z Z S J ^ J J S S J J J ^ J J J S S S S J J J S S Z S S Z S N S S 8 ",
"- 9 8 8 9 8 8 8 - 2 2 2 3 2 # o @ & = & & & & o % = & & & = & X @ & & & & & & o @ & & & & & & o @ * 8 2 2 2 2 = 8 8 8 9 9 q 8 * ",
"i e.4.2.e.2.q. .3 l m z b B d X < 6 6 0 0 w 5 & , 0 0 0 0 0 0 # 1 5 0 0 0 0 0 & < 0 5 w 0 0 5 & & c M z x x v w ..%.-.e.2.q.9.q ",
"i w.q.4.j.4.e. .2 m R N ] ] ` v q x m m m m m 4 e m x m m m m 3 s x m m m m x 4 e m x x m m m 4 b ! N N I P +.e q.2.2.e.6.e.e.q ",
"i q.4.e.j.4.e.| 2 m ] N I P ] ] v u m m m m m 3 t m m m m m m 4 p x m m m m m 4 t m m m m x t b ! ] N N N N N t ..q.e.j.4.w.e.q ",
"y 2.4.e.j.4.q.| 2 z ] I ] I F ] ) v f m m m m 9 w x m m m m M 3 p m x m m m m 3 e m m m m f b ` ] N F ] I N N y 2.4.e.e.4.2.j.q ",
"y q.j.j.e.4.4.| 2 z N F I ) I ] ] R v a m m m 3 e m m m m m M 4 a m m m m m m 4 w m m m e b +.N N N N ] S ] +.w %.4.j.j.q.e.e.r ",
"u e.e.j.z.j.2.^ # t ] P N ] F N F R F v s m m 4 e m m m m m m 4 a m m M m x m 4 t m m t b +.] N ] N N N ] P a * 2.2.6.j.4.j.l.q ",
"u j.4.4.e.e.q.^ # & f ] ] N ] N F N F +.b s m 3 e m m m m m x 3 a m m m x m m 4 w m p m ` ] N F N N N N R f = < 2.-.j.e.4.j.e.r ",
"u <.e.j.j.4.j.) & 4 # d F ] N N N I N ] +.v a 4 e x m m m m m 3 p m m m m m m 4 t a B +.N N ] ] N N F S f = s q ..q.e.e.e.j.e.9 ",
"y q.j.4.4.e.q.{ = 5 f & a F R ] ] F ] ] ] +.l < e x m m m m m 3 a m m m m Z m 4 2 v O.N N R ] ] ) N ] a = s m 0 ..e.l.6.6.j.w.0 ",
"y g.q.q.j.e.2.^ = 0 m p , u ] ] ] R ] ] ] ] ] c t m m m m m m 3 a m m m x m m 9 v ! N N N S ] ] ] ] d < w f m w ..e.z.e.e.e.q.q ",
"y j.q.q.j.e.4.J & 0 m m f , e ] I N N N N N I ] v e m m m m m 2 a m x m m m e b ) ] N N N F F ) R e < s m x m q X.z.e.2.e.e.X.q ",
"y e.e.q.j.e.e.) & 0 m m x d & f ] ] ] F I ] N ] ] v a m m m x 4 a x x m M d m ` ] N N S ] ] F ] f = w m m m x q 2.j.e.4.e.j.6.r ",
"y 4.j.4.q.e.e.^ & 0 m m m m f O d F R ] N ] ] N ] ] b d m m m 4 a Z m m s b @.) P N I N N F ] d & w f m m m m q 2.q.4.e.z.e.4.r ",
"i 4.6.j.e.j.e.| & 0 m m m m x < o e ] N ] ] N N ] N I v a m M 2 p m m p b +.] I ] I +.N ) ] a   8 x m m m m m q  .4.e.e.e.q.q.r ",
"u y.4.e.e.e.2.^ = 0 x m m m m 4 4 = a ] F ] N ] I P N ] v f m 3 p m d m @.I +.N N ] N N ] a , & e m m m m m m w %.e.l.j.j.w.q.0 ",
"y q.j.-.-.4.4.{ = 0 m m m m m 4 a f , a ] +.N N F ] N ] ] v a 3 e a B ] N N ] N +.N N N d < p 2 e x m x m m m w 2.j.e.e.e.j.j.0 ",
"i ;.q.j.j.e.2.) & 0 m m m m m 4 e m f = a ] N N ) R F N N ] c = 8 v +.N F N N ] N M ] d , w x 3 e m m m m m m q q.e.4.-.4.4.g.r ",
"u j.4.6.e.l.e.^ & 0 m m m m m 2 p x m f = d F N N ] N ] ] ] ] q r @.] N N N ] ] F F d , w x m 3 e m m m m m m w 2.-.4.4.2.-.q.r ",
"y e.j.4.q.e.j.{ & 0 m m x m x 4 e M m m m = a ] N N ] N ] N u ; : u ] ] +.N N +.F d , p x m x 3 s m m m m m m q  .2.e.e.4.q.2.9 ",
"i 4.e.j.j.-.e.{ & 0 m m m m x 4 a m m m m d = a F N ] N F c ; > v.j c ] N N ] F d , 0 x m m m 3 s m m m m m m q ..q.j.j.l.j.6.q ",
"u q.j.e.y.e.q.) = 0 m m m m x 4 s m m m m m f # e ] N ] f j > > > v.j c F F ] e = w m m m m m 4 p m M m m m Z 0 %.j.e.4.e.j.e.9 ",
"i e.q.e.q.j.4.J & 0 m m m m m 2 e m m m m x x 2 + a ] u ; > > > > v.v.j d ] a . 3 x m m m m m 4 a m m m m m x q 2.e.4.-.4.e.z.q ",
"u q.e.e.q.e.j.J & 0 m m m m B 2 e x m m m m M 4 3 & 4 j > > > > v.> v.[ : 9 = & p m m m m M m 2 a m m m m m x q -.2.2.-.4.q.e.r ",
"u q.4.j.j.e.e.^ , 0 m m m m m 3 a m m m m m m 4 q w q : [ > > > v.x.v.x.: 9 9 3 e m m m m m m 3 a m m m m m m q  .4.e.j.e.4.q.q ",
"i j.j.j.4.e.e.H & w m m m m f 3 a m m m x M m 4 8 v +.d j > > v.> > j j i +.g , e m m m m m M 3 a m Z m m m m q  .e.j.j.j.j.2.q ",
"y y.e.4.4.e.q.R & 0 m m m M x 4 p m m m m m m 9 c ` N ] l h [ > > > h g N N +.l q M x m m m m 3 p m x m m m x q %.e.j.j.e.z.4.q ",
"y 4.q.e.j.j.q.^ , 0 m m m m m 3 p m m x m m s b ) F N I ] g j v.v.j l R +.M +.] v e m m x m m 2 e m m m m m m q 2.g.e.e.e.e.e.9 ",
"y 4.j.e.e.e.q.| & 0 m m m m m 3 p m m m x a v +.] P N ] F F u j : d N ] +.+.N ] ! v d m m m m 4 a m m m m m m q q.e.q.e.j.j.j.9 ",
"g j.j.q.4.q.l. .& 0 m m m m m 4 a m m m a B O.+.] N I N N N ] 8 8 +.] ] N F ] F ] I b s m m x 2 a x x m m m m q q.j.4.e.e.4.j.q ",
"i 4.4.4.4.e.q.| & 0 m m m m x 3 e m m e b +.N N N N ] N F N t   @ a ] N N ] N ] N ] ] v a m x 3 a m M m m m m q 2.e.4.4.q.2.j.q ",
"u 2.q.q.j.4.q.| & 0 m m m m m 4 a m a b ! I N +.N N N N N d , & 9 , d ] F ] N F I ] ] ] v f M 3 a m m m m m m 0 2.j.2.e.w.q.g.0 ",
"y 2.e.j.4.j.j.| & 0 x m m m m 4 e a b ` I N N ] N N ] ] f < w 3 p f < f ] R ] ] N N N R ] b a 3 a m m m m m m 0 %.e.4.q.e.4.j.q ",
"y j.j.4.4.j.j.^ & 0 m m m m x 4 8 b ` N N N N N N N ] a = w x 3 p m f = e N N ] ] N N N N ] c = p m m m m m m w ..l.j.-.6.j.e.r ",
"y j.j.4.e.e.4.J & 0 m m m m m 4 v @.N N N F ] N N N d = w m m 3 a m M f = f ] F I ] N ] ] N N v w x m m m m m q X.w.e.2.4.q.j.r ",
"i q.4.q.j.q.q. .& w m m M m t B ) ) ] P N N ] ] P d , p m m m 3 a x M m m = a ] ] F N I N ] ] R v e m m x B m q 2.-.j.j.q.j.j.9 ",
"i 4.2.j.j.4.j.| & 0 m m B f b ) ] N R N N N F ] d , w m m m m 3 a m m x m d & a P N ] F N ] ] ] ] v a Z m m m q 2.4.e.l.j.j.q.9 ",
"y 4.4.j.6.4.j. .# w m m d b ) F N ] ] F N N F e , w m m m m m 3 a m m m M m f & e N ] P ] N ] ] F ] v d m m m w 2.e.e.e.j.e.q.0 ",
"u 2.g.q.4.e.j.{ & 0 x w b P N F N I ] F R R e X 3 m m x m m x 4 a m m m m m M 2 + e I R N F F ] F N F v e m m q  .j.2.6.6.2.2.q ",
"u 4.j.e.4.j.e.J & 5 a b ! I ] ] N N F N P f = = p m m m m m m 3 e M m M m m m 5 2 & f R F N N N N N F ] v s m w %.e.-.-.-.2.9.q ",
"y 4.j.q.4.e.j.J & 2 b ] N ] N N ] ] ] F f = p 3 w m m m m m m 3 p m m m m m m 4 t f = f R F R ] ] ] N N ] b p q ..e.j.-.-.e.j.9 ",
"y q.j.4.4.j.q.^ * f +.] ] ] N ] ] N ] e & e m 4 w m x m m m m 5 e m m m m m m 4 e m f & e F ] N ] ] N I I ] c 2 ..e.z.6.e.j.4.r ",
"u 4.j.4.4.e.g.K 8 B I P I N ] O.N S a , 0 x m 4 t m m m m m x 3 p m m M m m m 4 w m M a , d ] ] N ] ] R ] I ) u X.2.6.j.e.2.-.0 ",
"u 4.q.j.4.e.j. .2 z P I ] N N N F a , p x m m 9 s m m m m m m 3 p m M m m m m 4 e m m m f , a S ] ] F N I ] ] e 2.6.2.2.4.2.q.r ",
"u q.j.e.4.q.j.{ 2 z N ] N F N N f = w x x Z m 8 e m m x m m m 4 p m m m Z x m 4 w m x m m a & f N ] F N ] I ] e 2.l.e.6.4.e.j.q ",
"y <.j.e.4.4.j.| 3 z N F I ] ) d & p v m m m m 3 t m m x M m x 3 a m m m m m m 4 e m m m m m f O d ] ] N ] ] ] q  .e.l.e.j.e.q.q ",
"u 4.q.q.q.%.4.%.2 z ] N P R a   3 M x x m x m 3 w x M m m m m 3 t m m m m m m 4 y m m m m m m 2 o e ] F I N +.t 2.-.e.l.e.2.q.q ",
"7 i i g g g g y 1 q e y e q = % 2 q q 0 w q q 1 2 q w q w q q 1 8 0 0 w q r 0 1 2 0 r 0 q r 0 1 - * w y t t e 8 i u i c g i i - ",
"r a.s.e.s.g.e.q.2.q.g.g.s.q.q.q.w.p.g.q.X.s.g.q.q.g.s.w.z.w.9.9.q.q.e.q.e.e.w.q.2.4.e.q.q.w.e.s.s.6.q.q.s.g.q.2.q.s.g.q.2.%.q.r ",
"r %.u B g.u C j.6.2.e.e.q.g.e.X.2.q.q.-.q.g.q.4.q.g.g.w.=.=.9.6.z.e.z.e.e.j.e.e.4.2.e.j.e.q.2.4.2.2.q.j.g.4.2.4.e.B y %.b y e.r ",
"r  .$ y %.o y e.e.e.e.-.4.e.e.g.j.j.j.j.g.2.-.4.g.q.2.-.=.e.z.z.e.2.2.6.e.j.j.j.q.4.4.j.j.e.e.j.e.j.j.e.q.%.4.j.g.y o q.t $  .r ",
"y g.4.2.2.2.4.2.e.j.z.j.j.e.q.4.4.q.4.4.2.2.-.q.g.q.-.-.2.z.z.e.6.q.e.6.4.e.e.j.e.-.-.e.j.j.j.j.4.2.4.4.e.e.j.j.e.4.;.j.q.2.4.y ",
"r q.u C q.u n 4.4.4.e.e.e.j.j.j.j.e.e.4.2.2.-.6.g.g.e.q.=.9.z.6.-.4.j.6.4.4.j.j.e.6.6.j.j.e.6.6.4.e.j.j.e.j.j.j.e.B y w.S u ..r ",
"r | * u q.+ u e.q.e.4.4.q.e.6.e.e.e.j.j.6.2.-.2.e.g.j.e.9.=.6.z.e.6.6.6.q.j.e.e.e.6.e.j.e.6.e.e.e.e.q.4.4.6.q.e.j.u + -.u * 2.r ",
"u 6.%.2.2. .q.j.j.j.e.6.q.-.-.-.-.-.6.e.j.j.2.-.6.e.j.j.z.9.6.6.e.z.z.e.e.e.6.e.e.e.e.6.e.e.6.6.e.q.e.j.e.e.e.6.4.4.X.z.2. .e.r ",
"= 9 9 8 8 3 8 9 9 9 9 8 3 9 3 3 4 4 3 3 3 9 q 9 3 3 9 9 9 q 3 4 4 3 9 8 8 3 9 0 q 8 3 3 9 4 3 4 9 9 9 9 9 9 9 9 3 3 3 q 3 8 8 = "
};
