/* XPM */
static char *_f4c930c9d304f13eb9944f182c76c61I2FWwbh6ASB9oEqo[] = {
/* columns rows colors chars-per-pixel */
"64 64 132 2 ",
"   c #5C4323",
".  c #624627",
"X  c #604528",
"o  c #664A29",
"O  c #6B4E2B",
"+  c #704F2C",
"@  c #6E512D",
"#  c #73532E",
"$  c #78572E",
"%  c #6E5431",
"&  c #755531",
"*  c #795631",
"=  c #755934",
"-  c #7C5A34",
";  c #7F5F38",
":  c #825D36",
">  c #845F38",
",  c #866237",
"<  c #886337",
"1  c #856239",
"2  c #8A653C",
"3  c #8D6A3E",
"4  c #916B3F",
"5  c #996F3F",
"6  c #8D6740",
"7  c #856840",
"8  c #8E6C41",
"9  c #936D42",
"0  c #9A6E43",
"q  c #957144",
"w  c #9D7245",
"e  c #957449",
"r  c #99774B",
"t  c #97784C",
"y  c #9C794C",
"u  c #9D7D52",
"i  c #A17546",
"p  c #A47847",
"a  c #A37548",
"s  c #A27B4A",
"d  c #A17D52",
"f  c #9F8054",
"g  c #A5824F",
"h  c #AC834E",
"j  c #A58251",
"k  c #AB8553",
"l  c #AE8955",
"z  c #AF895A",
"x  c #B08552",
"c  c #B28A54",
"v  c #BC8E55",
"b  c #B38B58",
"n  c #B58B59",
"m  c #B58C58",
"M  c #B68D59",
"N  c #B68C5A",
"B  c #B78D5B",
"V  c #B78E5A",
"C  c #B18B5C",
"Z  c #B08C5C",
"A  c #B28C5D",
"S  c #B78D5D",
"D  c #B28C5C",
"F  c #B88F59",
"G  c #BA8F58",
"H  c #B88F5B",
"J  c #BC8F58",
"K  c #B88E5C",
"L  c #B98F5D",
"P  c #B88E5E",
"I  c #BC8F59",
"U  c #BA9056",
"Y  c #BD9055",
"T  c #BD9057",
"R  c #BC9057",
"E  c #BD9059",
"W  c #BC915A",
"Q  c #BE915A",
"!  c #BF925B",
"~  c #BF955B",
"^  c #B9905C",
"/  c #BA915D",
"(  c #BA905E",
")  c #BE905C",
"_  c #BF945D",
"`  c #BD915A",
"'  c #BB9360",
"]  c #BD9361",
"[  c #BE9261",
"{  c #BE9561",
"}  c #BF9563",
"|  c #BF9764",
" . c #BD9563",
".. c #C1945D",
"X. c #C1935C",
"o. c #C19765",
"O. c #C09663",
"+. c #C29961",
"@. c #C19862",
"#. c #C29963",
"$. c #C49B63",
"%. c #C39865",
"&. c #C29965",
"*. c #C39A64",
"=. c #C19966",
"-. c #C29866",
";. c #C39A66",
":. c #C29A67",
">. c #C59A65",
",. c #C49B65",
"<. c #C49B67",
"1. c #C59C66",
"2. c #C69D67",
"3. c #C39A65",
"4. c #C39B68",
"5. c #C49A68",
"6. c #C59B69",
"7. c #C39E69",
"8. c #C49C68",
"9. c #C59C68",
"0. c #C59D69",
"q. c #C79C69",
"w. c #C69D69",
"e. c #C79E68",
"r. c #C69C6A",
"t. c #C49F6A",
"y. c #C79E6A",
"u. c #C69D69",
"i. c #C89F6B",
"p. c #C89F6B",
"a. c #C9A06C",
"s. c #C9A06C",
/* pixels */
"1 y u u u u j u u u y u u u u u u u u u u u d u u u u u u j u u u u u u u u u u y u u u u u u u u u u u u u u u t u y u u u u 1 ",
"e :.4.7.<.{ 4.0.0.4.<.i.s.1.1.0.1.i.1.i.i.i.i.i.i.0.i.s.i.i.i.y.0.y.0.1.0.<.<.i.i.i.i.i.0.i.i.i.6.<.<.<.i.6.6.i.0.<.O.6.:.| 7.t ",
"e o.= t $.@ y <.i.i.<.6.i.0.0.0.<.$.$.<.<.<.$.<.<.<.:.<.<.1.<.<.<.<.<.<.1.<.i.i.<.6.1.<.0.0.<.<.1.0.2.<.<.$.$.<.<.t # :.t * { e ",
"t 0.u b <.t c 0.0.0.$.<.i.i.i.i.i.<.i.<.0.i.6.0.i.1.1.1.0.<.0.0.0.0.1.i.i.i.$.$.0.i.<.<.6.0.i.i.<.<.i.i.i.0.0.i.i.b t 1.m t :.e ",
"e i.7.0.0.1.1.i.<.<.<.i.0.<.6.<.$.$.<.<.$.<.<.<.$.<.i.<.<.<.6.<.6.6.0.i.i.i.<.<.i.i.<.i.i.i.i.q.$.<.6.1.i.6.<.1.$.#.:.1.3.#.0.e ",
"e { # t :.O e <.6.i.i.<.$.<.1.6.i.i.i.i.i.i.i.i.i.i.<.<.<.i.i.6.i.<.$.<.<.0.i.i.<.<.i.<.$.<.i.%.6.i.i.<.<.<.<.i.1.t O :.t # { e ",
"t 6.y A 0.t D 0.<.<.0.i.i.i.i.i.6.<.<.<.<.<.6.:.:.<.<.q.<.<.<.0.i.2.i.6.<.$.<.i.i.q.<.<.<.<.q.i.0.<.<.<.1.i.6.<.0.b e #.l t :.e ",
"8 H ^ H K ^ H V H H K K H H H H H H N N H H K K H H H N N N v N N H K N N m m N K K N N N H N N H H H B H H V m V V V ^ H ^ ^ 8 ",
"; 9 9 8 8 9 8 8 : 2 3 3 3 3 $ O @ & O O O # @ o + * O + O O O o O O + # O O # o o O O O o O + o O @ 3 3 < 3 3 : 6 8 8 9 8 q 8 - ",
"u 0.:.#.y.:.6.] 3 h k h h x g o - > > : : : : O - > : : : : : O * > > > , > > & * > : : : : : o @ s c h x h h q | :.#.6.:.0.s.8 ",
"u 7.<.<.y.0.0.] 3 h E U E E ^ k 2 w 0 0 0 0 0 : 3 0 5 0 0 0 q : 3 0 w w w w a , 4 0 0 0 0 0 9 ; j ~ v v Y Y E y | :.:.0.3.s.s.8 ",
"t :.:.0.i.:.0.] 3 h E v Y E E E l 3 a w 0 a w , 9 w i a w a w 1 4 a a a w a w , 5 a 0 a a w 9 l ~ E v v U Y J y 4.4.<.i.$.| s.e ",
"u :.<.0.i.#.<.] 3 h E Y E Y E E E k w w i a a , 9 w a a a i i 1 q p w p i s i , 9 a a i w 0 l ! E v E E E v Y w :.:.1.0.3.3.s.e ",
"e 7.i.s.i.<.<.! 2 h J E E ! Y ^ E E k 0 i i a < 9 a i a a p a , 0 p i i a i i , 9 w w a 0 l ..Y U v Y Y U E E t :.3.0.0.3.7.s.q ",
"y 0.0.i.i.0.:.' & e E Y E E E Y E X.^ k 4 i i > 4 w a i i a w 1 0 i i i w i a , 9 w a 9 k X.E J E v U Y Y Y s = :.#.3.s.3.s.s.8 ",
"t i.:.$.<.i.0.! $ $ s E E U E v I J E E l 0 i < 5 a i a w a a 1 q w w p i i i , 5 a 9 x _ ^ J I v v v v Y s - 1 :.#.s.0.3.0.s.e ",
"y -.0.i.1.<.0.! & : & p I E v U E J J Y E l 4 < 4 i i i i i i , q i i i i i a 1 3 0 c X.v v X.I v v H J s * 9 6 } 6.i.1.6.i.1.9 ",
"y 6.i.<.<.1.6.' + < 0 & p I E Y E I X.E E X.j ; q w w p i i w 1 q i i i i i s < 2 k X.v v X.J X.E v J y * 3 0 6 } 6.i.<.<.0.0.q ",
"e i.0.6.i.0.:.K O > 0 5 : s ^ ^ E ^ E E X.E X.g 4 i i i i i i 1 q p w i i i w < j _ v v J J E E E E p - < 0 0 3 | 6.y.6.<.0.:.q ",
"t i.6.0.0.0.6.K # > w w 0 ; p U E E Y J J J J E k 0 i a i i i , 0 i i i i i q l _ E v J J J J I ^ p - 2 0 0 a 8 | y.0.<.1.0.:.q ",
"t 0.i.6.i.i.<.H O > a i i 0 $ s I J E J v E Y E X.k 0 a y p w 1 0 w i a i 0 k _ E v v Y I I Y I s $ 2 0 w w w 3 :.i.<.$.0.i.<.e ",
"t <.1.<.<.0.6.K @ > w a i i w @ s X.E E v Y ! E E E k q i p w 1 9 i a i 0 c _ E ^ J E J J I X.s # 2 0 0 w a i 3 O.<.<.<.0.0.<.e ",
"y <.<.1.q.i.6.K # : w p i w w - O y E I E E J J E v E k q i i , 4 i p 0 k ..E J E X.E J I X.r   - 0 0 w a w a 3 { <.0.0.i.6.<.q ",
"y i.<.<.i.0.<.K @ > 0 i i i w 1 3 $ s E E Y J J E Y Y E k 0 w 1 q i q k X.I X.Y J Y v v H w & o 1 w w a a a w 3 :.1.i.i.i.6.<.e ",
"y 6.0.$.$.:.$.] O > w a i i i : 0 q : p E E Y U E E J E ! k 0 1 q 0 l E E Y E U X.v v J p * 2 & < 0 a 0 i a a 3 :.0.0.<.1.i.1.q ",
"u o.0.i.i.0.$.( & > 0 a i i i 1 0 i 4 - p X.v v E E E Y v ! j * < k X.E E v v E v v J i * , 0 * 4 i a i i a i 8 <.0.<.<.<.<.i.q ",
"y i.<.<.0.i.0.S # > 0 a a w w 1 q i p 5 $ s J v J Y J E E E E h r ~ E U J J E E I X.p # 1 0 0 ; 9 i a i i w w 8 :.#.<.$.:.#.6.e ",
"t 2.i.2.<.6.i.! # > 0 a w a a 1 q i i i w - p J v v X.J E Y E E l s Y E E E E E H s * 3 0 0 0 : 0 i a i i i a 8 { <.1.0.1.<.:.q ",
"y <.6.i.0.$.6.] # > 0 a a a i 1 q i i a i 5 - s J J E J J J I E X.k h E Y v Y E s * 2 0 q w a 1 q i i a i i i 8 { 1.i.i.s.2.1.q ",
"t 6.1.<.q.0.<.] # > 0 a a a w , 5 i i i a i 5 # y E Y Y U Y J E E ^ k h E E E y * < 0 0 a i w : q i i i a a p 3 :.0.i.1.0.i.0.9 ",
"u 6.<.i.<.i.<.^ # < w w w i i , 4 i p i a i i : O y J v Y v v Y v E ^ l s E s . - 0 0 w i p w , 0 i i i w i a 2 :.<.<.#.:.0.a.q ",
"y 6.6.0.6.<.i.K # > 0 w w i i , q i i i i a i : > $ p X.Y J J v E J ! E l 9 $ o 2 q i a i i i 1 q i i i a p w 3 :.#.:.$.#.6.y.e ",
"y 1.<.i.0.6.i.( * > 0 w p w w 1 q i i w i a i 1 1 3 q s I J E I E E E J E g ; * 2 w a i i i p 1 q i i i i i a 3 { <.0.i.0.<.<.q ",
"y i.i.1.$.6.i.^ # > w w w a p 1 q i i p i i i , 1 k X.s s Y J E E E J Y J Y t & 3 i a w i a w 1 q w p i i i i 3 { 0.i.i.i.0.<.q ",
"u 6.0.<.<.0.0.^ # , 0 a w p i 1 q i i i a a i 1 k ~ J J h h I E Y Y J J v v E g 4 p w i i i w 1 q i i w a i i 3 | 0.i.0.1.0.<.q ",
"t :.<.6.i.i.<.K & , w w w p w 1 4 i i i i w 9 l X.^ v J H h g U E E v X.E v E E h 4 i a i i p 1 q i i i i p i 3 :.0.6.0.0.0.0.q ",
"t <.i.i.1.6.<.] & > 0 a i p i , q p i i w 0 l _ Y Y ^ E J J p h X.E J E ! ! I E X.k 4 a i p w 1 4 p i p w a i 3 :.i.<.<.0.i.2.9 ",
"u i.i.<.:.<.i.] # < 0 a i a w 1 q p i i 0 l X.E E Y v v v J E 3 s E E E E E ! E ^ ^ c 9 i w i 1 q i i i i i a 8 <.i.<.<.0.<.i.q ",
"y <.<.$.<.i.6.^ & 1 0 w i w w 1 0 w i 5 l X.J v J v Y v J J a X # s E I v X.H X.v ! Y k q i i 1 0 p a w i p a 9 :.i.<.<.<.<.y.e ",
"t $.<.<.i.<.0.] & , 0 a i p w 1 9 a 0 k _ Y J Y v J v J I y - & 3 : p v v X.J I Y ~ E X.h q w 1 5 w w s p a a 4 O.i.<.0.<.<.0.e ",
"t 6.0.i.$.2.i.{ $ > 0 i a a a 1 q 0 l ! I v J E J v J J y - 3 - 9 w : p E J E J J v v J Y k q 1 q w i i i a s 8 o.0.<.1.0.0.i.q ",
"y i.i.<.<.i.0.! $ > w w a a a , 2 j _ U J v J J v v J p * < 0 - 0 w w - s Y J X.E J J v J X.k * 0 a s i i i p 9 { i.i.<.1.0.0.q ",
"t y.y.<.0.0.6.K $ > 0 i a 5 i 1 l ..U Y v E Y v J v s & > 0 w : q w p 5 * s E Y J X.Y E E J J k 8 w w a s i p 9 | 0.0.#.<.0.i.e ",
"u 6.<.0.a.6.0.{ $ > w i a a 4 c _ E E v v U E E H s & 3 0 w i , q i i i w - s Y Y J v J J E Y E x 4 i i a p p 8 :.#.i.i.6.i.y.9 ",
"u 6.$.i.i.$.0.' # < i i w w x ..X.J E J v U U E s - 2 0 w w i 1 q i i w p 5 - y J J I J J Y E E E k w a p a p 9 :.<.0.i.i.0.6.q ",
"t #.<.i.0.<.i.' # > 0 i w l ! J v I X.I v v J y * < 0 0 a w p 1 q p i i a a 0 $ y v X.J Y J X.Y E E j w i a p 0 O.1.0.i.i.0.0.9 ",
"y <.6.0.<.6.i.^ # > q 8 k ^ v J J v Y J J U p . ; 0 w w w p w 1 q p p i w a p : O s v E J Y E E E E W k 9 a p 3 { i.<.1.1.:.:.q ",
"t <.i.0.:.i.i.^ # > 4 k ~ Y J J v v H v v s # @ 1 0 a i i a a 1 5 i a i a i i , < $ s E Y J J J U U E W z w p 9 | 0.#.$.#.:.0.q ",
"y <.i.<.:.i.1.K * : k E v E Y Y E Y ! J p # 2 - 6 0 a a a a p 1 0 p a i a i a 2 4 w * s ^ E E E E E E I E l 0 8 | 6.i.#.$.1.i.9 ",
"t <.i.<.<.i.<.^ * j ~ E E E U E E v I t # 2 0 : 8 a i w i a w , 4 i w a i i a 1 5 i w $ p E E U E X.v Y Y X.j 2 { 4.i.0.i.i.3.9 ",
"t <.i.<.#.0.y.( 2 c E v Y v X.I v v a & > 0 w , 9 a i i i a w 1 q i i i i i a , 9 w i 5 ; s ^ Y J E I I E E X.r | :.1.i.0.1.:.e ",
"t <.q.i.4.y.y.' 3 h Y E E J E J v y - < 0 0 p , 9 i a i i i a 1 q i a i i a a , 4 a i p q - p J Y E E E Y Y v y :.3.:.:.<.:.0.q ",
"y <.i.i.:.<.i.{ 2 h v v J J v J p * 2 0 5 a p 1 9 i a a i a i 1 q a p a i i i , 9 w i i w 5 * s J E E v E Y E y :.i.6.4.$.0.0.q ",
"y <.0.i.<.$.0.| 4 h v v J X.Y p @ 9 0 a w s i 1 4 w a a i a a : q p i i i a p , 4 a a a i a 0 O s E Y J X.E Y y { 0.i.y.i.0.6.q ",
"y o.<.i.<.o.6.] 3 h X.Y U U y . : w w a a w w < 0 p w i i i a , 0 i i i a a a 1 9 a a a a a w *   w ^ X.I U E y | :.7.y.i.:.6.q ",
"7 d y d s d d y 1 5 y y e e * & : 3 3 3 3 3 6 ; 1 2 8 3 3 3 3 ; 1 3 3 2 8 3 8 ; 1 2 9 < 8 3 3 - = = e y w y y 2 u y j j y u u ; ",
"e t.t.y.y.y.0.<.:.3.t.y.t.4.4.4.0.7.y.6.4.0.y.4.4.t.s.7.7.7.| | 7.0.1.4.0.0.7.:.:.:.0.6.:.:.7.4.7.4.:.<.y.y.0.:.0.y.0.6.:.:.<.q ",
"e o.y b 0.t A i.1.:.1.1.y.y.6.4.<.:.:.<.6.0.1.<.4.7.7.s.3.3.s.3.a.0.i.0.6.i.0.0.$.:.0.i.0.<.<.<.:.<.1.s.y.<.:.<.0.D t O.l t 6.t ",
"e ] @ t :.O t 0.s.s.3.:.:.6.0.y.i.i.i.i.i.<.#.<.y.y.3.3.| s.s.s.0.#.:.<.6.0.i.i.1.<.1.i.i.0.0.i.0.i.0.1.4.:.0.i.0.t O <.y % ] e ",
"t y.:.:.:.:.<.$.3.0.s.0.i.0.6.:.<.6.<.1.:.:.$.0.y.6.$.$.| s.s.3.<.<.i.1.$.6.0.i.0.$.#.1.a.i.i.0.<.6.<.:.6.0.0.i.i.<.o.i.<.O.<.t ",
"e 4.y A 6.t z <.$.:.0.1.0.i.i.0.0.0.1.<.:.$.3.0.y.y.y.7.$.3.s.s.$.3.s.3.<.<.i.i.0.:.1.s.s.0.1.1.<.1.1.0.0.0.y.i.0.D t 0.S t :.e ",
"e } = y 0.% y 0.1.1.:.:.<.1.1.0.s.0.i.0.1.3.:.3.y.y.0.0.$.| 3.s.0.3.3.$.<.i.0.1.3.3.0.0.1.1.0.0.0.6.0.<.3.3.0.0.i.y @ $.y = O.t ",
"e 7.o.o.:.{ 0.a.i.0.s.3.1.<.$.$.$.#.3.s.s.0.3.3.0.0.i.i.s.s.3.1.0.s.s.s.i.0.<.1.s.7.0.1.0.0.3.3.0.6.i.i.0.0.1.1.<.:.3.7.:.{ 1.e ",
"- q 9 8 8 8 8 8 9 9 8 9 3 4 3 3 3 8 3 8 3 4 9 8 3 3 9 9 q 8 4 3 4 3 9 3 3 3 9 9 q 3 3 4 8 3 8 9 3 8 9 9 q 8 9 4 3 3 3 q 3 9 3 - "
};
