/* XPM */
static char *_d082ec1df6f48779140fd24628e2c7dahI2UPV5Ye5K4pCm[] = {
/* columns rows colors chars-per-pixel */
"64 64 205 2 ",
"   c #26274E",
".  c #29274F",
"X  c #26284F",
"o  c #2A294E",
"O  c #312C4E",
"+  c #392E4E",
"@  c #2F304F",
"#  c #3C344D",
"$  c #36344C",
"%  c #2A2751",
"&  c #272A51",
"*  c #2A2B52",
"=  c #2C2E59",
"-  c #272B57",
";  c #312E53",
":  c #2D3156",
">  c #2E325B",
",  c #343253",
"<  c #393453",
"1  c #363856",
"2  c #3E3A56",
"3  c #32345C",
"4  c #35395C",
"5  c #3B3B5B",
"6  c #3A3659",
"7  c #2F3562",
"8  c #323662",
"9  c #343A64",
"0  c #3A3D63",
"q  c #363C6B",
"w  c #393D6C",
"e  c #353768",
"r  c #363E72",
"t  c #3A3F76",
"y  c #393E79",
"u  c #45394C",
"i  c #42354C",
"p  c #503E4C",
"a  c #433C54",
"s  c #423D5D",
"d  c #463955",
"f  c #523F52",
"g  c #403F67",
"h  c #423F76",
"j  c #3F405E",
"k  c #3D4164",
"l  c #36416C",
"z  c #3C436B",
"x  c #374165",
"c  c #374175",
"v  c #3B4176",
"b  c #3E4278",
"n  c #54404C",
"m  c #4B4155",
"M  c #44425B",
"N  c #4B435B",
"B  c #49445B",
"V  c #534355",
"C  c #5E4B5E",
"Z  c #52485E",
"A  c #624E5D",
"S  c #6C545B",
"D  c #655059",
"F  c #73585F",
"G  c #444464",
"H  c #474867",
"J  c #4C4A64",
"K  c #43456A",
"L  c #464A6C",
"P  c #4B4B6A",
"I  c #4A4769",
"U  c #534C64",
"Y  c #5C4C60",
"T  c #524E6B",
"R  c #514760",
"E  c #4E526D",
"W  c #53526B",
"Q  c #5C596F",
"!  c #5B5366",
"~  c #424375",
"^  c #42467A",
"/  c #46497C",
"(  c #494A7C",
")  c #494C71",
"_  c #534F70",
"`  c #4E5273",
"'  c #535371",
"]  c #5A5670",
"[  c #5B5973",
"{  c #595C78",
"}  c #645565",
"|  c #6C5462",
" . c #625965",
".. c #66596A",
"X. c #745A64",
"o. c #7B5D65",
"O. c #645D74",
"+. c #635E7B",
"@. c #6C616C",
"#. c #77646B",
"$. c #636075",
"%. c #6A6474",
"&. c #656379",
"*. c #6E6B7D",
"=. c #6B6778",
"-. c #756B75",
";. c #7A6C73",
":. c #736A7A",
">. c #7A6D7B",
",. c #766673",
"<. c #77707B",
"1. c #7E747E",
"2. c #7D7276",
"3. c #82665F",
"4. c #8C6B65",
"5. c #876769",
"6. c #8A6A6B",
"7. c #856764",
"8. c #9C756C",
"9. c #96716B",
"0. c #827275",
"q. c #82767C",
"w. c #8D7B7C",
"e. c #887878",
"r. c #957A77",
"t. c #A17669",
"y. c #A47B6C",
"u. c #8F827C",
"i. c #94827D",
"p. c #98847D",
"a. c #BD886C",
"s. c #A08A7F",
"d. c #B98772",
"f. c #DC9D79",
"g. c #4C4E81",
"h. c #5C598B",
"j. c #625C8C",
"k. c #65638E",
"l. c #676788",
"z. c #70658D",
"x. c #6F738C",
"c. c #7D7B8C",
"v. c #747386",
"b. c #6A6492",
"n. c #706795",
"m. c #736B96",
"M. c #716799",
"N. c #746D99",
"B. c #796E99",
"V. c #7E759E",
"C. c #797A92",
"Z. c #7F78A1",
"A. c #827982",
"S. c #867A81",
"D. c #937F81",
"F. c #81769E",
"G. c #81789E",
"H. c #8276A0",
"J. c #8579A2",
"K. c #8A7DA5",
"L. c #7D8194",
"P. c #82818C",
"I. c #8F8083",
"U. c #908282",
"Y. c #9A8781",
"T. c #968A8F",
"R. c #8D8B95",
"E. c #958D93",
"W. c #9C949A",
"Q. c #A58E87",
"!. c #AB9486",
"~. c #A79389",
"^. c #B59A87",
"/. c #8E82AA",
"(. c #8B8DA2",
"). c #9185AD",
"_. c #8D90A1",
"`. c #9393A2",
"'. c #9C99A4",
"]. c #9B9DAA",
"[. c #9D97A3",
"{. c #9589B1",
"}. c #998DB4",
"|. c #A099A0",
" X c #A396BB",
".X c #ABA5AA",
"XX c #A4A2AA",
"oX c #B0A8AE",
"OX c #B2AAB2",
"+X c #B2B0B3",
"@X c #D29C80",
"#X c #CAA98E",
"$X c #C7AA94",
"%X c #CAAD94",
"&X c #D0AE92",
"*X c #E3BF9F",
"=X c #ECC9A6",
"-X c #F2CBA5",
";X c #BAB8C3",
":X c #CFCFD7",
">X c #D2D3D6",
",X c #C3C4C9",
"<X c #F5F5F8",
"1X c #F2F0F5",
"2X c #E4E5E9",
/* pixels */
"F.F.F.F.F.F.F.F.F.V.F.F.F.F.F.F.F.F.F.F.F.F.F.F.F.F.F.F.F.F.F.F.F.F.F.F.F.F.F.F.F.F.F.V.G.F.F.F.F.F.F.F.F.F.F.F.F.F.F.F.F.F.F.F.",
"F.F.F.F.F.F.F.F.F.F.F.F.F.F.V.F.F.F.F.F.F.F.F.F.F.F.F.F.F.F.F.F.F.F.F.F.F.F.F.F.F.F.F.F.F.F.F.F.F.F.V.F.F.F.F.F.F.F.F.F.F.F.F.F.",
"F.F.F.F.F.F.F.F.F.F.F.F.F.F.H.G.F.F.F.F.F.F.F.F.F.F.F.F.F.F.V.F.F.F.V.F.F.V.F.F.F.F.F.F.F.F.F.F.F.F.F.F.F.F.V.F.F.V.G.F.F.F.F.F.",
"F.F.F.F.F.F.F.F.F.F.F.F.F.F.F.F.F.F.F.F.F.F.F.F.F.F.F.F.F.F.F.F.F.F.F.F.F.F.F.F.F.F.F.F.F.F.F.F.F.F.F.F.F.F.F.F.F.F.F.F.F.F.F.F.",
"F.F.F.F.F.F.F.F.F.F.F.F.F.F.F.F.F.F.F.F.F.F.F.F.F.F.F.F.F.F.F.F.F.F.F.F.F.F.F.F.F.F.V.F.F.F.V.F.F.F.H.G.F.F.F.F.F.F.H.V.V.F.F.F.",
"F.F.F.F.F.F.F.F.F.F.F.F.F.F.F.F.F.F.F.F.F.F.F.F.F.F.F.F.F.F.F.F.F.F.F.F.F.F.F.F.F.F.H.F.F.F.F.F.F.F.V.F.F.F.F.F.F.F.G.F.F.F.F.F.",
"F.F.F.F.F.F.F.V.F.F.F.F.F.F.F.F.F.F.F.F.F.F.F.F.F.F.F.F.F.F.F.F.F.F.F.V.F.F.F.F.F.F.F.F.F.F.F.F.F.F.F.F.F.F.F.F.F.F.F.F.F.F.F.F.",
"V.F.F.F.F.F.F.F.F.F.F.F.F.V.F.F.F.F.F.F.F.F.F.F.F.F.F.F.F.F.F.F.F.F.F.F.F.F.F.F.F.F.F.F.F.F.F.F.F.F.F.F.F.F.F.F.F.F.F.F.F.F.F.F.",
"F.F.F.F.F.F.F.F.F.V.F.F.F.F.F.F.F.F.F.F.F.F.F.F.F.F.F.F.F.F.F.F.F.F.F.F.F.F.F.F.F.F.F.F.F.F.F.F.F.F.F.F.F.F.F.F.F.F.F.F.F.F.F.F.",
"F.F.F.F.F.F.F.F.F.G.F.F.F.F.F.F.F.F.F.F.F.F.F.F.F.F.F.F.F.F.F.F.F.F.F.F.F.F.F.F.F.F.F.F.F.F.F.F.F.F.F.F.F.F.F.F.F.F.G.H.F.F.F.F.",
"F.F.F.F.F.K.K.F.F.F.F.F.F.F.F.F.F.F.F.F.F.F.F.H.F.F.F.F.V.F.F.F.F.F.F.V.K.K.F.F.F.F.F.F.F.F.F.V.F.F.F.F.F.F.F.F.F.V.F.G.F.F.F.V.",
"F.F.F.F.F.H.F.F.F.F.F.F.F.F.F.V.F.F.F.F.F.F.F.F.G.F.F.F.F.F.F.F.H.F.F.F.H.F.H.F.F.F.F.F.F.F.F.F.F.F.F.F.F.F.F.F.H.F.F.F.F.F.G.H.",
"F.F.F.F.F.H.H.F.F.F.F.F.F.F.F.F.F.F.F.F.F.F.F.F.F.F.F.F.F.F.F.F.H.F.F.F.F.F.F.F.F.F.F.F.F.F.F.F.F.F.F.F.F.F.).F.G.V.F.V.F.Z.F.F.",
"H.H.H.F.H.F.H.F.F.F.F.F.F.F.F.F.F.F.F.F.F.F.F.F.F.F.F.F.G.F.F.F.F.F.F.F.F.F.F.F.F.F.F.F.F.F.F.F.F.F.F.F.F.F.}.J.F.F.F.F.F.H.F.F.",
"M.M.n.b.n.F.G.V.F.F.F.F.F.G.F.F.F.F.F.F.F.F.H.H.K. XF.F.V.F.F.F.F.F.F.F.F.F.F.F.F.F.F.F.F.F.F.F.F.F.F.F.F.F.F.G.F.F.F.F.H.M.b.M.",
"t t t t v F.G.F.F.F.F.F.F.V.H.F.F.F.).F.F.F.F.H.K.K.F.F.G.F.F.F.H.F.F.F.F.F.F.F.F.F.F.F.F.F.F.F.F.F.F.F.V.F.F.F.F.H.F.F.V.^ t b ",
"t t t t ~ H.H.F.F.F.F.F.F.F.F.F.F.F.G.F.F.F.F.F.F.F.F.F.F.G.F.F.H.F.F.F.F.H.F.F.F.F.F.F.F.F.F.F.F.F.F.F.F.F.F.G.F.F.F.F.V.^ y t ",
"v t t t b H.F.F.F.F.F.F.F.F.F.F.F.F.G.H.F.F.F.F.G.F.F.F.F.F.F.F.H.F.F.F.F.F.F.F.F.J.J.F.F.F.F.F.F.F.F.F.F.F.F.F.F.F.F.F.V.~ t t ",
"t t t t ~ H.F.F.F.F.F.F.F.H.F.F.F.F.G.F.F.F.F.F.H.F.F.F.F.F.F.F.H.V.F.F.F.F.F.F.F.{.K.F.F.F.F.F.F.F.F.F.F.F.F.F.F.F.F.F.V.^ t t ",
"t t t t v F.F.F.F.F.F.F.F.}.K.F.F.F.F.F.F.F.G.F.F.F.F.F.F.F.F.F.F.F.F.V.F.F.F.F.F.F.F.F.F.F.F.F.F.F.F.F.H.b.b.b.k.k.k.V.V.^ y r ",
"t t t t ~ H.F.H.F.F.F.F.F.F.F.F.F.F.F.H.F.F.F.F.F.F.F.F.G.F.F.F.F.F.F.F.F.F.F.F.F.F.F.F.F.F.F.F.F.F.F.F.F.( v c t t t m.H.^ y t ",
"t t t y b H.F.{.J.F.F.F.F.F.F.F.F.j.h.h.h.h.j.h.j.V.F.F.F.G.V.F.F.V.B.V.V.V.B.Z.V.V.F.F.F.F.F.F.F. X/.F.F.( c t t t t M.F.h t t ",
"t t t t v H.G.K.H.F.F.F.F.F.F.F.V.v b v c t t t b V.F.F.F.F.F.F.H.j.t t r t ~ w v k.F.F.F.F.F.F.F.K.F.F.G.g.t t t h t M.V.^ t t ",
"t y t t ~ F.F.F.F.F.F.F.F.F.F.F.V.h t t t t t t ~ F.G.F.F.F.F.F.F.j.t t t t t t t k.K./.F.F.F.F.F.F.F.).K.( t h t t t M.H.~ t y ",
"t t y t ~ H.H.F.F.F.F.F.F./.F.F.V.~ c t t y t c ^ V.F.H.F.F.F.F.H.j.y t t y t t t k.K.K.F.F.F.F.F.F.F.G.H.( t t c t v N.F.~ y y ",
"t v c t b H.H.F.F.H.F.F.F.J.F.).V.v h t t t t t ^ V.F.}.F.F.H.V.H.j.t t t b t y t k.F.F.G.H.F.F.F.F.F.F.F.g.y t t t c M.F.~ t t ",
"t t t t t H.).F.V.F.F.F.F.F.F.{.Z.~ t v t t t t ~ F.F.F.F.F.F.F.H.j.~ t t t c t t k.F.J.H.F.F.F.F.F.F.F.F.( y y t b y h.j.b y t ",
"t y t t ~ H.K.F.F.F.F.F.F.F.F.F.Z.~ t t t t t t ~ F.F.F.F.F.F.V.H.j.t t t t t t c k.F.G.F.K.F.F.F.H.F.F.F.( v v t t t v y b c t ",
"r r t y ~ H.F.F.F.F.F.J.}.H.J.F.Z.t t t t t t t h h.h.h.h.h.h.V.h.g.b b t t t t t k.F.G.K.}.F.F.F.F.F.F.F./ y y t c c r t r t r ",
"& > t y v H.F.H.F.F.F.J. XF.F.F.F.h t t t t t t y y r t y t t m.t t t t b t t y h k.H.H.J.G.H.F.F.F.H.).G.( c t t 7 % % & - & % ",
"9 8 v v t H.H.H.F.F.F.F.G.J.F.F.Z.t t t h t t c t v c t t t y m.y t t t t t t c t k.F.F.F.F.J.F.F.F.F.F.F.( c y t 7 9 q e q 0 9 ",
"u.G y t t ^ ^ ^ ( F.F.F.F.H.F.F.V.h t r * * % * * % = t t t t m.t t t t t c t t t k.F.F.F.F.F.G.).G.H.F.F./ y t r G q.q w z T.D.",
"r 8 t b c t c t / F.F.F.F.H.F.F.Z.h t r = 8 8 Y o.o.C t t c v m.v t t t t t t b c k.F.F.F.F.F.F.F.F.H.F.F./ c c t 0 =.z :.*.z q ",
"l 8 t y t t t t / F.F.k.b.b.b.b.b.t t r = 3 : N S S m t t y ~ m.t t t t t t t t t h.b.b.b.b.b.b.b.b.b.F.F.( t t t w [ z $.+.v w ",
"w.K v y b t t t / F.F.t t v y c t t t q | t.8.8.t.t.X.c t t b m.t t t v t c t v y t v b t t t c t c v B.F.( v v t 8 K A.l q z q.",
"c 9 t t t t t t ~ F.H.b v y t h t t t q m D 6 < , ; : r r t v m.t t c t t t t y t y v t t t t t t v v B.H./ c y t e [ z q l > x ",
"w 8 c t t t t t ~ B.B.w r r t t t t t q Y 5.q 8 9 * > c c t b m.t y t t v y t t y t t t t t t t t t t B.H.( v v t 0 v.q q c z l ",
"c.M v t t t t * % % X X & * r v t t y q 3 w e q q q 8 t y y t m.q q q w w w w q q t t t t t c t t q w l.z.~ q q q 7 8 l q A.c q ",
"z e y t t t r e 8 3 8 e 9 9 t c t y y q * * , # < % - r y y b N.% * * $ , * % X X e t y b t t y t 1 4 6 o % * % % : * G K k ) l ",
"w 8 t t t t t =.:.K P [ 9 q t t t t t r 3 g 9.9.9.G 3 r t t t N.8 7 0 w.w.4 X X & e t v t t c t ^ XXXX[.` q 9 : J ' $ e.c.z T.z ",
"w 7 v c v c t K z 9 9 P &.q r t t t y q C 7.7.o.3.7.A r t t h M.U #.%.1 > 8 & & X e c t t c c t v R.E.R.R.R.R.H g J & q q l l q ",
"c = = % = v r q 9 7 9 k H 9 t c y t t r i n n n f V d t r t t h 6 B M * * - % & X % * * - : = t v E W W W W ! 4 , < & q q q z q ",
"z : % X % t t q :.@.[ G ;.q t t t c y w X.y.y.4.4 q 7 r y t t t > * K w.4 4 & X X 8 w l q q w r v e 8 q 0 l.+XW J ] % r w I.W.U.",
"w = X X % t r ] k 7 q K Q ] r t t t t w : > > 4 > X & 8 8 e e 7 = > 4 }  . .@ X X V S 4 3 > 3 r v 3 8 > > > > * 5 M : +.l l z l ",
"w * X . % t t O.k 8 9 G %.&.w t t t t q > 3 9 3 , X o & X o o   > 3 5 ,.-.;.@ & X D #.6 8 8 4 t t 9 3 8 9 7 9 * j J , :.9 q l q ",
"K * X X * w q q q T ,.-.,.q r t r r q q Y 7.4.7.#.o N , $ s.Q.Q.Q e.2.4 8 8 & & * 3 q 0 4.8.9.h v e v..X.XA.q * G ' * z A.w c A.",
"l * X X & * * 9 q 8 0 k K q t t ; 1 % * o : 5 o o X @ * % 6 1 2 : 1 , * X * X X * + # i d # < t c 5 M J H G 2 o , 3 & l z l L K ",
"q = X . - 9 q 9 q 7 9 I ,.q w r K _.8 8 8 9 ].0 * X N $ * 9 q x 3 4 7 X % 3 & & % X.8.8.8.T q r ^ XX.X.X.XoX.XT H W % q q l T.z ",
"<.5 X . O 4.5.k 9 U W 9 q 9 X X * 4 C.C.v.l.8 3 * & g + < i.Y.0.7 G 0.-.3 8 X % * > q e 8 q 9 t h q q G [.W.'.T g T ; q.q.A.z q ",
"` , . . o N f q : 5 z k 9 q X * & = H G G G : , * % < o o N Z B * , M M , = & X . % , ; , , 1 w r = ; 1 W T W 1 , < * ' W _ z z ",
"z * X X % 9 8 q 9 7 W ;.;.9 X X : 9 X > 3 1 e L.k % Z , & q q q 9 8 9 k w.5 & & o 4 } 8.8.8.8.o X q q q q w q > G ] * q q l T.P.",
"z * X . o } , Q +.U L 9 q 9 X X * > : > k { > = o % a o , ;.;.@...! > > 3 > X X . = 8 4 6 8 3 X o c.c.c.A.c.c.M s G , &.q l l 0 ",
"l * X . o | < [ ..W P q q q . . : : > > K { > , & o s O , ;.0.#.@. .3 3 3 > & & % > > 7 8 e 4 % * P.P.L.P.P.P.M s G + Q l q l l ",
"l = X . O y.y.0.G 7 W O.9 9 . . G ]._.k 7 3 &   X o Z , & q q q O * % e e 9 X X o o.y.y.y.R w % * 0 C.].l l.+XE P [ , 1.w z E.z ",
"L , . . . O u 9 q 9 k 0 I 8 . . & X * - - * G * o   $ & & : M m % ; 2 2 a 2 o X o # # u u u u o . * * * & & * X o , * w q l z L ",
"v.2 . . % G 5.g q T W I %.8 X X * 3 3 8 3 4 (.9 * X M , % k w.p.7 G 2.0.0.0., o X | S 4.4.4.5.o X 8 9 9 9 9 9 : G W * q 0 q c 1.",
"q : . X X 9 4 %.,.j 9 9 9 9 X X * 3 3 x.' * 3 3 * X M , % 4 9 ;.3 > > & & 3 % % o 3 q e 8 8 9 & % 9 z W.[.[.$.J G W * z q.l c q ",
"q * X X X o - k G 3 9 4 * 9 o X % * = 1 , X & - X X @ % % @ o 2 * * @ % % * X & o * O O : * & X X : : j M s 1 ; @ , % l P q z : ",
"z * X X O 6.q q q 7 ` -.2.;.X . G ].`.w ` C.% 1 * X J $ < ~.^.^.! p.e.9 9 9 & X o X.t.y.} q 9 X , OX*.9 q l 0 = L ] : q l l W.i.",
"l * X & & M | 9 9 L E G $.e o . % 3 8 = > 3 L.x.5 * s , * 4 ;.e.: X 7 > > #.O X % > 8 8 > N #.O X 9 8 7 9 L { * 5 P & l w :.l q ",
"> % X X X s C , : s m a C * X X * 3 3 1 > 1 v.&.4 * a , = > @.;.* & = 1 > ..o o . ; 4 4 1 d F * X 3 > 8 4 P W * 2 G . 3 3  ., 3 ",
"%XM X X % z l w.#X#.&Xe.#Xu.X % P >X,X].>X`.:X:XG o N , % q q 9 ,.9 L !.!.!., o o 5.a.d.a.a.d.O o 0 L .XoXOX.XT G ] < %X&X&X&X&X",
"=Xm o X * ~ c Q.*X0.-Xp.=X!.. % ' <X2X;X<XOX<X1XW % % & % % % * v.z ` $X%X%X< X % 8.f.f.f.f.f.* % * & = ; ; = % * * 2 =X-X-X-X-X",
"^ w h t t t c ~ ) v ~ ~ v ~ v r v ^ ^ ^ ^ v ^ ^ r t v c t h t t v c v v ~ ~ v v t ~ K ~ ~ h ~ t c r t t t t t r t t h ~ / ~ ~ ~ "
};
