/* XPM */
static char *c78a476b52144d73ff5e6c6ea1426d2dRDpRwkZL3pufHBX3[] = {
/* columns rows colors chars-per-pixel */
"64 64 109 2 ",
"   c #AA3D36",
".  c #AE3E3D",
"X  c #874B05",
"o  c #894D06",
"O  c #874C08",
"+  c #8A4C09",
"@  c #8E5007",
"#  c #8F5108",
"$  c #925207",
"%  c #985707",
"&  c #945309",
"*  c #995609",
"=  c #9C590A",
"-  c #934715",
";  c #914A14",
":  c #95471A",
">  c #99461E",
",  c #944918",
"<  c #A45D0C",
"1  c #A95E0B",
"2  c #A7600C",
"3  c #AC630D",
"4  c #B2660E",
"5  c #AD6410",
"6  c #B16610",
"7  c #9B4524",
"8  c #9F482C",
"9  c #A1432B",
"0  c #A2492B",
"q  c #A64432",
"w  c #AD453C",
"e  c #AE3B40",
"r  c #B23A45",
"t  c #B6344B",
"y  c #BD3656",
"u  c #BC3C53",
"i  c #BE3058",
"p  c #C0315C",
"a  c #D11D76",
"s  c #D61E7B",
"d  c #C42E62",
"f  c #CC246F",
"g  c #CD2F6C",
"h  c #C73263",
"j  c #C83166",
"k  c #C93A67",
"l  c #CD346D",
"z  c #CC396B",
"x  c #D22576",
"c  c #D22A77",
"v  c #D6227D",
"b  c #D8217E",
"n  c #DA2F7E",
"m  c #CF3770",
"M  c #D43077",
"N  c #D23874",
"B  c #D7317B",
"V  c #D9387E",
"C  c #CC446A",
"Z  c #DA2582",
"A  c #DC2A85",
"S  c #DF2D89",
"D  c #DB3C81",
"F  c #E02F87",
"G  c #E02E89",
"H  c #E2338D",
"J  c #E33C8E",
"K  c #E43691",
"L  c #E63B93",
"P  c #E93D95",
"I  c #E84097",
"U  c #EC449B",
"Y  c #EE499E",
"T  c #F0489F",
"R  c #EF4EA2",
"E  c #F14DA2",
"W  c #F352A5",
"Q  c #F656A9",
"!  c #F856A9",
"~  c #F55AAB",
"^  c #FA5CAD",
"/  c #F75EB0",
"(  c #FB5FB0",
")  c #F562AE",
"_  c #F860AD",
"`  c #F765B1",
"'  c #FE62B3",
"]  c #F66BB3",
"[  c #FC6AB5",
"{  c #FE67B8",
"}  c #FD6DB8",
"|  c #F776B7",
" . c #FB71B7",
".. c #F775BA",
"X. c #FB74B9",
"o. c #F77BBB",
"O. c #FA7BBD",
"+. c #F781BE",
"@. c #F980BF",
"#. c #F787C2",
"$. c #F985C1",
"%. c #F68CC3",
"&. c #F98CC5",
"*. c #F794C7",
"=. c #F890C5",
"-. c #F598C7",
";. c #F695C8",
":. c #F699C9",
">. c #F898C8",
/* pixels */
"' ' ' ' ' ' ' ' ' ' ' ' ' ' ' ' ' ' ' ' ' ' ' ' ' ' ' ' ( { ( ( { ( ' ' ' ' ( { ( { ( ' ' ' ' ( { ( ( { ' ' ' ' ' ' { ( ' ' ' ' ",
"' ' ' ' ' ' ' ' ' ' ' ' ' ' ' ' ' ' ' ' ' ' ' ' ' ' ' ' ' ' { ( ' ' ' ' ' ' ' ( ' ' ' ' ' ' ' ' ( { ' ( ' ' ' ' ' ' ( ( ' ' ' ' ",
"' ' ' ' ' ' ' ' ' ' ' ' ' ' ' ( ( ' ' ' ' ' ' ' ' ( ' ' ' ' ' ' ' ' ' ' ' ' ' ' ' ' ' ' ' ' ' ' ' ' ' ' ' ' ' ' ' ' ( { ' ' ' ' ",
"' ' ' ' ' ( ' ' ' ' ' ' ' ' ' ' ' ' ' ' ' ' ' ' ' { ( ' ' ' ' ' ' ' ' ' ' ' ' ' ' ' ' ' ' ' ' ' ' ' ' ' ( { ( ' ' ' { ( ' ' ' ' ",
"' ' ' ' ' ' ' ' ' ' ' ' ' ' ' ' ' ' ' ' ' ' ' ' ' ' ' ' ( { ' ' ' ' ' ' ' ' ' ' ' ' ' ' ' ' ' ' ' ' ( { ( ' ' ' { ( ' ' ' { ( ' ",
"' ' ' ' ' ' ' ' ' ' ' ' ' ' ' ' ' ' ' ' ' ' ' ' ' ' ' ' { ( ' ' ' ' ' ' ' ' ' ' ' ' ' ' ' ' ' ' ' ' ( { ' ' ' ' ( { ( ' ' ( ' ' ",
"' ' ' ' ' ' ' ' ' ' ' ' ' ' ' ' ' ' ' ' ' ' ' ' ' ' ' ' ( ( ' ' ' ' ' ' ( ( ' ( { ( ( { ' ' ' ' ' ' ' ( ' ' ' ' ( { ' ' ' ' ' ' ",
"' ' ' ' ' ' ' ' ' ( ' ' ' ' ' ' ' ' ' ' ' ' ( ' ' ' ' ' ( { ' ' ' ' ' ( { { ( { ( ( { ( ' ' ' ' ' ' ( { ' ' ' ' ' ( ' ' ' ' ' ' ",
"' ' ' ' ' ' ' ' ' ' ' ' ' ' ' ' ' ' ' ' ' ' ' ' ' ' ' ' ' ' ' ' ' ( { ( ' ' ' ' ' ' ' ' ' ( { ' ' ' ' ' ( ' ' ' ' ' ' ' ' ( { ( ",
"' ' ' ' ' ' ' ' ' ' ' ' ' ' ' ' ' ' ' ' ' ' ' ' ' ' ' ' ' ' ' ' ' ' ' ' ( { ' ' ' ' ' ' ' ' ( ' ' ' ' ' { ' ' ' ' ' ' ' ( { { ( ",
"' ( ' ' ' ' ' ' ' ' ' ' ' ' ' ' ' ' ' ' ' ' ' ' ' ' ' ' ' ' ' ( ' ' ' ' ( ( ( ' ( { ' ' ' ' ' ' ' ' ' ' ( ' ' ' ' ' ' ' ' ' ( ' ",
"' ' ' ' ' ' ' ' ' ' ' ' ' ' ' ' ' ' ' ' ' ' ' ' ' ' ' ' ' ' ' ' ' ' ' ' { ( { ' ' ( ' ' ' ' ' ' ( ' ' ' ' ' ' ' ' ' ' ' ' ' ' ' ",
"' ' ' ' ' ' ' ' ' ' ' ' ' ( ' ' ' ' ( ' ' ' ' ' ' ' ' ' ' ' ' ' ' ' { ( ' ' ' ' ' ' ' ' ' ( ' ' { ( ( { ' ' ' ' ' ' ' ' ' ' ' ' ",
"' ' ' ' ' ( ' ' ' ' ' ' ' ' ' ' ' ' ' ' ' ' ' ' ' ' ( ' ' ' ' ' ' ' ( ( ' ' ' ' ' ' ' ' ( { ' ' ( { ' ( ' ' ' ' ' ' ' ' ' ' ' ' ",
"' ' ' ' ' ' ' ' ' ' ' ' ' ' ' ' ' ' ' ' ' ' ' ' ' ' ' ' ' ' ' ' ' ' ( { ' ' ' ' ' ' ' ' { { ( ' ' ' ' ' { ( ( { ' ' ' ' ' ( ' ' ",
"' ' ' ' ' ' ' ' ' ' ' ' ' ' ' ' ' ' ' ' ' ' ' ' ' ' ' ' ' ' ' ' ' ' { ( ' ' ' ' ' ' ' ' ( ( ' ' ' ' ' ' ( ( { ( ' ' ' ' ' { ( ' ",
"' ' ' ' ' ' ' ' ' ' ' ' ' ' ' ' ' ' ' ' ' ' ' ' ' ' ' ' ' ' ' ' ' ' ' ' ' ' ' ' ' ' ' ' ' ' ' ' ' ' ' ' ' ' ' ' ' ' ' ' ' ' ' ' ",
"' ' ' ' ' ' ' ' ' ' ' ' ' ' ' ' ' ' ' ' ' ' ' ' ' ' ' ( ' ' ' ' ' ' ' ' ' ' ' ' ' ' ' ' ' ' ' ' ' ' ' ' ' ' ' ' ' ' ' ' ' ' ' ' ",
"' ' ' ' ' ' ' { ( ' ' ' ' ' ' ' ' ' ' ' ' ' ' ' ' ' ' ' ' ' ' ' ' ' ' ' ' ' ' ' ' ' ' ' ' ' ' ' { ( ( { ' ' ' ' ' ' ' ' ' ' ' ' ",
"' ' ' ' { { { ' [ ' ' ' ' ( ' ' ' ' ' ' ' ' ' ' ' ' ' ' ' ' ' ' ' ' ' ' ' ' ' ' ' ' ' ' [ ' ' [ ( ( { ( ' ' ' ' ( ' ' ' ' ' ' ' ",
"' ` ' [ { } } } { [ ' ' ' ' ' ' ' ' ' ' ' ' ' ' ' ' ' ' ' ' ' ' ' ( ' ' ' ' ' ' ' ' ' [ ' ' ' _ ( { ' ' ( ' ' ' ' ' ' ' ' ' ' ' ",
"( ( ' [ X.@.@.O.X.} ' [ ' ' ' ' ' ' ' ' ' ' ' ' ' ' ' ' ' ' ' ' ' ' ' ' ' ' [ [ [ X.[ { [ { { ' ' ( ' ' ' ' ' ' ' ' ' ' ' ' ' ' ",
"^ ^ ' } @.&.=.&.$.O.} } [ [ [ ' { { ' ' ' ' ' ' ' ' ' ' ' ' ' ' ' ' ' ' ' [ [  .O.@.@.O.O.[ [ { { [ ' ' ' ' ' ' ( ' ' ' ( ' ( ' ",
"Q ~ `  .#.;.:.;.&.$.O.X.[ [ [ { { } { ' ' ' ' ' ' ' ' ' ' ' ' ' ' ' ' ' ' {  .O.&.=.&.&.@.@.O.X.} { [ ( ' ' ' ' ' ' ' ' ' ' ( ( ",
"E W ~ ] +.;.;.-.-.*.%.#.@.O.O.O.O.O.} } { ' ' ' ' ' ' [ ' ' ' ( ' ( ( ( ( { X.$.;.;.;.;.;.*.#.@.O.} } ' { { ( ( ' ( ( ( ( ( ( ( ",
"P U W ` ..*.;.-.:.:.;.*.=.&.&.&.$.$.@.X.[ ' ' ' ' ' ' ' ' ' ( ' ( ( ^ ( ( { X.$.-.-.-.-.;.;.;.*.#.@.X.{ ( ( ( ( ( ( ^ ^ ! ! ! Q ",
"S L U Q ] o.%.;.:.:.;.:.:.;.:.;.:.=.&.@.} { ' ' ' ' ' ^ ( ( ^ ^ ( ! ^ ^ ~ ( [ ..#.*.;.-.:.:.-.:.*.$.X.} ( ( ( ( ^ ! Q E W E E E ",
"A S L Y W ] o.#.*.;.:.:.:.:.:.:.:.:.=.$.} [ ` ' ( ' ^ ^ ! ~ ! W E W E W E W ~ ` ..+.#.-.;.-.:.;.:.#...{ ( ( ! Q W E E U P P P K ",
"v A S I Y ~ ] o.$.%.*.;.;.:.;.:.>.:.&.@.} [ ( ( ^ ^ ~ ! W E R Y U U I U U U R W ) ] | +.%.&.&.*.&.$.] ` ^ Q E E T I L K K S H S ",
"a v A S J U W ) } ..o.#.#.&.&.&.&.$.@.X.[ ( ^ ! Q W E R U U P L K K H H K K L P Y W W ) ] ..o.o...} ) Q Q E E P J D N z l g v Z ",
"a s s Z S I R W ~ ` ]  ...O.o...O...[ ` ^ ~ Q Q E Y U P K J H F B n Z Z Z A S H L I Y R W ~ ) ) ) ~ W E E P C 0 , ; O X X O : e ",
"- t v v A S J I R Q ~ / ` ` ` [ ' ' ) ~ Q E E U P P H V p 0 ; o o O , . h s Z Z S S S I I R R R R Y U P C q X X X X X X X X X O ",
"X X : d b Z H H P Y T E W Q Q Q ! W W E Y U P K H z q X X X X o X X X X X > i s Z Z Z S H K L P L L D w X X X X X X X X X X X X ",
"X X X O . v Z S H K P U U Y T U T U U U L H H N 0 X X X X X X X X X X X X X X 9 f s v Z Z S S S S k , X X X X X X X X X X X X X ",
"X X X X X 7 p b A S H H H P P P L H H H S m q O X X X X X X X X X X X X X X X X - t x s b Z c j q O X X X X X X X X X X X X X X ",
"X X X X X X X   p x Z A A G S G G F M p 9 O X X X X X X X X X X X X X X X X X X X X - 7 9 : + O X X X X X X X X X X X X X X X X ",
"X X X X X o X X O :   r y j g j u   ; X X X X X X X X X X X X X X X X X X X X X X X X X X X X X X X X o o X X X X X X X X X X X ",
"X X X X X X X X X X O o X X X X X X X X X X X X X X X X X X X X X X X X X X X X X X X X X X X X X X o X o X X X X X X X X X O + ",
"X O X X X X X X X X X X X X X X X X X X X X X X X X X X X X X X X X X X X X X X X X X X X o X X X X X X X X X X o o o o o + + @ ",
"X X X X X o X X X X X X X X X X X X X X X o X X X X X X X X o X X X X o o o o o o O o o X o o O X X o X X o o o o o + o # # $ $ ",
"+ X o o X X X X X X X X X X X X X X X X o X X X X X X X X X o X o o o o O + @ # o + @ o O O o + o o o o o + o O @ & $ $ & * * * ",
"$ + o o X o X X X X X X X X X o O X X X X X X X X O o O O o + X o $ # $ $ & & & * & $ $ & + $ # @ o @ + @ + $ # & & & * = = = = ",
"& & @ o o X X o O O o o X X X X X X X X o o X o O O O @ o o $ $ $ * % * * * * * = * * * * * * * * $ $ * * * * * * * = < < < 1 1 ",
"* * & & & $ @ o @ o O O X O X X o o X o o o o o @ # # $ & * * * = = = = = < < 1 = < < < < = * = * * * = * * < = < 1 1 1 2 2 1 5 ",
"< = * * * & & $ @ @ @ O O @ o o @ o @ o @ @ # # # $ * * = = = = < < 1 1 1 1 1 2 2 2 2 1 1 < 1 < 1 < < < 1 < < 1 1 1 2 3 5 3 3 5 ",
"2 < 1 < = = * % * * $ & * & $ $ $ & & & * * * * % % = = = 2 2 2 2 2 5 2 3 5 3 6 3 3 3 3 3 2 2 2 2 2 2 1 2 2 2 2 3 3 4 3 5 5 6 4 ",
"2 3 2 1 < < < < = = * * * * * * * = = * = = = = 2 2 2 2 2 3 3 3 5 3 5 3 5 3 4 3 6 3 4 3 5 3 3 3 3 3 5 5 3 4 5 3 6 3 3 4 4 4 4 4 ",
"3 4 2 5 2 1 1 < 2 < 1 < < < 1 < < < < < < 2 2 2 2 2 2 3 3 3 4 6 6 4 4 4 4 4 4 4 4 4 4 4 6 3 4 4 3 3 5 3 3 4 6 4 6 6 4 4 4 4 4 4 ",
"6 4 4 4 3 3 1 2 3 2 1 2 2 1 2 1 4 4 4 4 3 3 3 3 3 3 4 4 4 4 4 4 4 4 4 4 4 4 4 4 4 4 4 4 4 4 4 4 4 6 4 4 6 4 6 4 4 4 4 4 4 4 4 4 ",
"4 4 3 4 4 4 4 4 6 5 6 1 6 3 5 5 4 4 4 4 3 4 4 3 3 4 4 3 4 4 4 4 4 4 4 4 4 4 4 4 4 4 4 4 4 4 4 4 4 4 4 4 4 4 4 4 4 4 4 4 4 4 4 4 ",
"4 4 4 4 4 4 4 4 4 6 4 3 4 4 6 6 4 4 4 4 4 4 4 4 4 4 4 4 4 4 4 4 4 4 4 4 4 4 4 4 4 4 4 4 4 4 4 4 4 4 4 4 4 4 4 4 4 4 4 4 4 4 4 4 ",
"4 4 4 4 4 4 4 4 4 4 4 4 4 4 4 4 4 4 4 4 4 4 4 4 4 4 4 4 4 4 4 4 4 4 4 4 4 4 4 4 4 4 4 4 4 4 4 4 4 4 4 4 4 4 4 4 4 4 4 4 4 4 4 4 ",
"4 4 4 4 4 4 4 4 4 4 4 4 4 4 4 4 4 4 4 4 4 4 4 4 4 4 4 4 4 4 4 4 4 4 4 4 4 4 4 4 4 4 4 4 4 4 4 4 4 4 4 4 4 4 4 4 4 4 4 4 4 4 4 4 ",
"4 4 4 4 4 4 4 4 4 4 4 4 4 4 4 4 4 4 4 4 4 4 4 4 4 4 4 4 4 4 4 4 4 4 4 4 4 4 4 4 4 4 4 4 4 4 4 4 4 4 4 4 4 4 4 4 4 4 4 4 4 4 4 4 ",
"4 4 4 4 4 4 4 4 4 4 4 4 4 4 4 4 4 4 4 4 4 4 4 4 4 4 4 4 4 4 4 4 4 4 4 4 4 4 4 4 4 4 4 4 4 4 4 4 4 4 4 4 4 4 4 4 4 4 4 4 4 4 4 4 ",
"4 4 4 4 4 4 4 4 4 4 4 4 4 4 4 4 4 4 4 4 4 4 4 4 4 4 4 4 4 4 4 4 4 4 4 4 4 4 4 4 4 4 4 4 4 4 4 4 4 4 4 4 4 4 4 4 4 4 4 4 4 4 4 4 ",
"4 4 4 4 4 4 4 4 4 4 4 4 4 4 4 4 4 4 4 4 4 4 4 4 4 4 4 4 4 4 4 4 4 4 4 4 4 4 4 4 4 4 4 4 4 4 4 4 4 4 4 4 4 4 4 4 4 4 4 4 4 4 4 4 ",
"4 4 4 4 4 4 4 4 4 4 4 4 4 4 4 4 4 4 4 4 4 4 4 4 4 4 4 4 4 4 4 4 4 4 4 4 4 4 4 4 4 4 4 4 4 4 4 4 4 4 4 4 4 4 4 4 4 4 4 4 4 4 4 4 ",
"4 4 4 4 4 4 4 4 4 4 4 4 4 4 4 4 4 4 4 4 4 4 4 4 4 4 4 4 4 4 4 4 4 4 4 4 4 4 4 4 4 4 4 4 4 4 4 4 4 4 4 4 4 4 4 4 4 4 4 4 4 4 4 4 ",
"4 4 4 4 4 4 4 4 4 4 4 4 4 4 4 4 4 4 4 4 4 4 4 4 4 4 4 4 4 4 4 4 4 4 4 4 4 4 4 4 4 4 4 4 4 4 4 4 4 4 4 4 4 4 4 4 4 4 4 4 4 4 4 4 ",
"4 4 4 4 4 4 4 4 4 4 4 4 4 4 4 4 4 4 4 4 4 4 4 4 4 4 4 4 4 4 4 4 4 4 4 4 4 4 4 4 4 4 4 4 4 4 4 4 4 4 4 4 4 4 4 4 4 4 4 4 4 4 4 4 ",
"4 4 4 4 4 4 4 4 4 4 4 4 4 4 4 4 4 4 4 4 4 4 4 4 4 4 4 4 4 4 4 4 4 4 4 4 4 4 4 4 4 4 4 4 4 4 4 4 4 4 4 4 4 4 4 4 4 4 4 4 4 4 4 4 ",
"4 4 4 4 4 4 4 4 4 4 4 4 4 4 4 4 4 4 4 4 4 4 4 4 4 4 4 4 4 4 4 4 4 4 4 4 4 4 4 4 4 4 4 4 4 4 4 4 4 4 4 4 4 4 4 4 4 4 4 4 4 4 4 4 ",
"4 4 4 4 4 4 4 4 4 4 4 4 4 4 4 4 4 4 4 4 4 4 4 4 4 4 4 4 4 4 4 4 4 4 4 4 4 4 4 4 4 4 4 4 4 4 4 4 4 4 4 4 4 4 4 4 4 4 4 4 4 4 4 4 "
};
