/* XPM */
static char *c503f715dcc949fdc0fb3f49151500ffPpA2UL6oaKTfeaXd[] = {
/* columns rows colors chars-per-pixel */
"64 64 229 2 ",
"   c #1C3D1E",
".  c #1B371E",
"X  c #2E371C",
"o  c #2F381C",
"O  c #333D1C",
"+  c #383F1C",
"@  c #30361C",
"#  c #1C3C20",
"$  c #1A3720",
"%  c #203E22",
"&  c #343D20",
"*  c #452F1D",
"=  c #46311D",
"-  c #4C331E",
";  c #463D1E",
":  c #483D1F",
">  c #51341F",
",  c #4D3421",
"<  c #463D21",
"1  c #493E22",
"2  c #4C3726",
"3  c #523622",
"4  c #543924",
"5  c #593A25",
"6  c #563B2A",
"7  c #5A3E2A",
"8  c #492F22",
"9  c #1E441C",
"0  c #284B1F",
"q  c #22461E",
"w  c #36401D",
"e  c #3A441D",
"r  c #3A471C",
"t  c #2E531F",
"y  c #30521F",
"u  c #3E611D",
"i  c #1E4021",
"p  c #224522",
"a  c #254B21",
"s  c #2A4E24",
"d  c #214F2B",
"f  c #3B4520",
"g  c #3F4A21",
"h  c #265324",
"j  c #2C5423",
"k  c #2D5A24",
"l  c #22522B",
"z  c #255B2C",
"x  c #2B5A29",
"c  c #315622",
"v  c #335A24",
"b  c #3A5D23",
"n  c #355B28",
"m  c #265930",
"M  c #2C642B",
"N  c #2C692C",
"B  c #2B6329",
"V  c #316325",
"C  c #3A6124",
"Z  c #336926",
"A  c #3D6D27",
"S  c #32662B",
"D  c #3D6228",
"F  c #346B2B",
"G  c #3A6E2B",
"H  c #3C7226",
"J  c #36702A",
"K  c #3C7129",
"L  c #44421D",
"P  c #49431F",
"I  c #434A1E",
"U  c #48491D",
"Y  c #455D1F",
"T  c #454321",
"R  c #4A4223",
"E  c #454C23",
"W  c #4B4B24",
"Q  c #514725",
"!  c #554A25",
"~  c #594E27",
"^  c #5D402D",
"/  c #564C29",
"(  c #594E29",
")  c #445523",
"_  c #4B5325",
"`  c #455B23",
"'  c #4B5B25",
"]  c #4D5628",
"[  c #4E5B29",
"{  c #475E28",
"}  c #505524",
"|  c #5D5326",
" . c #515C25",
".. c #5D542A",
"X. c #515C29",
"o. c #595A2A",
"O. c #565628",
"+. c #60412F",
"@. c #61562A",
"#. c #645A2B",
"$. c #685B2B",
"%. c #655A30",
"&. c #6A5F31",
"*. c #436424",
"=. c #4C6426",
"-. c #446A26",
";. c #4B6C26",
":. c #41652A",
">. c #4D6529",
",. c #4B6D2A",
"<. c #436E2C",
"1. c #526327",
"2. c #52652A",
"3. c #5B662A",
"4. c #546A2B",
"5. c #5B6C2D",
"6. c #5B6A27",
"7. c #42752B",
"8. c #4C742B",
"9. c #467A2D",
"0. c #4B7A2C",
"q. c #477326",
"w. c #51752C",
"e. c #5C722E",
"r. c #527B2C",
"t. c #5B7B2B",
"y. c #566B31",
"u. c #5B6D31",
"i. c #467431",
"p. c #4C7A31",
"a. c #4B7732",
"s. c #567232",
"d. c #5D7431",
"f. c #547D33",
"g. c #5A7C33",
"h. c #577F38",
"j. c #587C3C",
"k. c #63652D",
"l. c #636B2C",
"z. c #6B6B2D",
"x. c #706F2E",
"c. c #61752F",
"v. c #6B712E",
"b. c #647B2F",
"n. c #6D792D",
"m. c #72752E",
"M. c #636E31",
"N. c #6D6930",
"B. c #627532",
"V. c #6C7432",
"C. c #647A32",
"Z. c #6A7D34",
"A. c #6C753C",
"S. c #607B38",
"D. c #6E7B3C",
"F. c #67723A",
"G. c #717432",
"H. c #747A35",
"J. c #757C39",
"K. c #797E39",
"L. c #757A3A",
"P. c #6C7540",
"I. c #4D802E",
"U. c #53822E",
"Y. c #5B8A2E",
"T. c #558132",
"R. c #5D8435",
"E. c #5D8834",
"W. c #5D8339",
"Q. c #618536",
"!. c #6B8235",
"~. c #648A36",
"^. c #6A8D35",
"/. c #628639",
"(. c #6E853B",
"). c #648A39",
"_. c #6B8D3B",
"`. c #708737",
"'. c #728B35",
"]. c #71863D",
"[. c #7A823B",
"{. c #748B3C",
"}. c #798F3C",
"|. c #6E9336",
" X c #6E933D",
".X c #66973C",
"XX c #719336",
"oX c #72943A",
"OX c #75993B",
"+X c #799B3D",
"@X c #779935",
"#X c #62862F",
"$X c #6A8140",
"%X c #768D41",
"&X c #798E42",
"*X c #7F8F48",
"=X c #748444",
"-X c #6B9743",
";X c #739644",
":X c #7C9444",
">X c #749A43",
",X c #7C9943",
"<X c #729649",
"1X c #7D9649",
"2X c #73994A",
"3X c #7B9B4C",
"4X c #6EA545",
"5X c #65A044",
"6X c #7CAB4C",
"7X c #76A549",
"8X c #7AB14B",
"9X c #828F49",
"0X c #808E44",
"qX c #809546",
"wX c #82944A",
"eX c #849C4C",
"rX c #8B9B4B",
"tX c #849B46",
"yX c #859B50",
"uX c #8A9B52",
"iX c #83A24D",
"pX c #8AA34E",
"aX c #88AF4F",
"sX c #84B54C",
"dX c #8CA453",
"fX c #8DAB54",
"gX c #86A351",
"hX c #92AB55",
"jX c #93AC58",
/* pixels */
"X X X X X X X X X X X X X X X X X X X X X X X X X X X X X X X X X X X X X X X X X X X X X X X X X X X X X o X X X X X X X X X X ",
"X X X X X X X X X X X X X X X X X X X X X X X X X X X X X X X X X X o o X X X X X X X X X X X X X X X X X X o X X X X X X X X X ",
"X X X X X X X X X X X X X X X X X X X X X X X X X X X X X X X X X X X o X X X X X X X X X X X X X X X X X X X X X X X X X X X X ",
"X X X X X X X X X X X X X X X X X X X X X X X X X X X X X X X X X o w X X X X X X X X @ X X X & & X X X X & & X X X X X X X X X ",
"X X X X X X X X X X X X X X X X X X X X X X X X X X X X X X X X o @ & O X X X X X X o X X X O O X & X X @ O @ O O o X X X X X X ",
"X X X X X X X X X X X & X X X X X X X X X X X X X X X X X X X X o o X X o o X X O O @ @ X X O X X X X X o o @ w w @ X X X X X X ",
"X @ @ X X X X X X X X X X X X X X X X X X X X X X X X & X X X X o o X X X X X X o o X X X X X X X X X O w w O O O o O X X X X X ",
"O O w & X X X X X X X X X X X X X X X X X X X X X X X X X X X X X X X X O o o e O O O o X O O O X X O w w O o O O w w X o X X X ",
"X & f @ X X X X X & X X X X X X X X X X X X X X X X X X X X X X X o o w O O O O w O e O O O O O w @ w w O o O O w w w O o o o o ",
"X X X X X X X o O O o X X X X X o @ & X X o O o X X X O w O X X X o O w O O w O w O w O w w w + w O g w w O w + O O O O o o X X ",
"X X X X X X X o & f X o o X o w O w & X X o O X X X X O O @ X X o O w O O O O w w O w O w O w O O e _ _ _ ) O e e w O O O O X o ",
"O X X X O O o o o w X o O o o w w O @ O w O X O O O O o & O @ o O w o o O O w O O o o O O + f f O T W _ _ E ) E w w w r O O O o ",
"X X X X @ O o O w o w w w o o w & o X w w w O O O w w o @ O O O w w O @ w w w O O O O O O + & f T ; W ) ) ) ) ) e O O E r w O O ",
"O w O O O O w w w w o o X o w w @ O w w O O w w w O O f O O O O w O e e w w w O e e f f e e f E < < _ _ ) ) ` ` ] e I e e w O O ",
"O w O e e O w O w w w w w o w w O w w O O X X X O X O O O O w w w )  .w O w w + T f e ) ' E Q ! 1 < E W ) ) ) ) ) ' ' e w w w O ",
"w w O e ) ) r w w O o w w w w w w w O w O o X X & O w O O O O O r r e U r w w O f ) f ) ) _ ~ ( R 1 W ) ) ` ` Y ) )  .) g r E r ",
"w w O O e f + e f O O w e e e w O w O O w O w O o w w w w O w O O e E [ 1. ._ ) ) ] ` ) ) _ / / 1 R W b Y ) ) ` ) ) ) ' >.X.[ ) ",
"y r O f I 3.] 2.) w w O e X._ r O e e f w O O w w w w w g g e r ) [ ` ` ) ) ) ) ` ` W { ` ) / / 1 < ] { ` { { ) b Y ` ` ) ` { ' ",
"4.1.2.] } 2.W =.[ _ _ E _  .e w w r  .) O O e O e E ' 1.;.>. .' ` ) =.[ *.{ ` ) ` =.[ X.2.=.~ ( R < X.>.>.>.` *.` ` =.>.` =.=.2.",
"1.>.>.=.X.]  ._ ' ) W R R R W E _ } X.[ e e ) X.2.1.>.>.>.=.` >.2.2.>.1.>.=.=.>.>.=.1.W [ ] ..( 1 < [ >.>.>.>.>.=.=.>.>.>.=.>.>.",
">.>.>.>.>.=.] ] >.[ ] Q 1 < < 2.4.W ] } o.1.4.1.>.>.=.>.>.>.` >.>.>.>.2.4.>.>.>.>.>.>.' ! X.....T < [ >.>.>.>.>.>.>.>.>.=.` >.>.",
"4.>.4.4.1.>.2.] X.>.X.! 1 < T [ X.[ 1.=.1.>.2.>.=.>.=.>.>.>.>.>.4.d.d.y.4.2.>.>.>.4.2.>.[ W ..~ T 1 [ >.>.4.>.4.>.>.4.>.>.>.>.>.",
"s.d.d.e.d.e.1.1.X.>.o.| Q < Q y.} 2.d.e.4.1.>.=.;.1.>.` >.>.>.>.4.u.d.u.d.u.4.>.4.d.y.4.4.W ..( 1 1 y.4.d.5.>.1.e.g.4.4.1.>.s.d.",
"d.d.B.C.C.B.d.4.[ O.3...Q < R ..l.B.C.B.d.d.4.4.4.>.>.1.>.>.>.>.4.d.c.d.4.l.l.>.u.d.5.d.B.3.....< < k.u.C.l.4.4.e.e.e.C.C.d.d.d.",
"d.b.C.b.C.C.5.5.4.X.! %./ < 1 o.C.B.C.B.B.C.B.5.5.1.4.d.2.>.2.u.4.e.C.C.e.l.l.1.e.e.c.B.C.l.#...R < 5.B.c.m.3.4.d.5.C.b.C.B.B.B.",
"C.C.C.C.b.C.e.l.3.2.O.#./ < < 3.C.C.C.C.C.C.C.B.l.3.4.d.%XC.d.B.C.C.C.C.B.l.z.1.5.e.B.b.C.e.#...1 T l.C.e.G.3.6.5.B.C.b.C.C.b.b.",
"C.b.C.b.C.b.C.z.l.4.k.&.( < T l.C.Z.C.C.b.C.`.C.v.z.5.=XfXhX`.C.C.b.!.!.Z.l.V.1.5.d.].`.C.V.@...R 1 l.B.B.x.3.1.B.C.C.C.b.C.C.b.",
"C.C.C.C.B.&XwXG.l.5.A.#.( < R A.C.C.C.C.C.:XhXeXH.l.6.dXhXjX`.(.:X:X:X`.:Xz.V.2.5.C.qXhX{.V.#...1 R M.C.Z.x.3.4.C.C.B.b.C.b.Z.Z.",
"`.=XZ.C.C.:XyXH.3.5.A.#.! : T uX;XC.b.b.`.jXhXdX[.l.d.hXhXhX`.}.hXrX:X:XgXV.z.4.B.Z.rXhX%XA.@.( 1 1 M.C.Z.V.3.4.B.u.e.b.C.`.&X{.",
"&X:XeX{.].:XyXK.l.5.A.N.Q : R uXeX:X:XeXhXhXhXdXK.z.d.jXdXhX{.:XhXhX{.}.eX}.x.4.].Q.dXeX`.D.#...R 1 M.1X!.V.3.4.5.4.b.Z.rXhXdX}.",
"%X:XhXpX(.:X(.v.z.u.P.#.! : R rXtXwXhXhXhXhXhXdXH.v.B.hXtX`.`.:XhXhX:X{.dXrXx.3.=XQ.rX{.(.D.%.#.1 < =XeXZ.m.5.1.e.C.C.(.fXhXhX`.",
"(.eXhXhX}.{.Z.G.z.u.A.#.~ < R qXdXeXhXhXhXhXhXpXK.z.e.hXdX:X(.:XhXhX:X}.hXrXz.2.].!.gXhX{.D.@.#.1 < 9X:XZ.x.5.4.C.C.Z.pXhXjXjX:X",
"].eXjXhX}.{.1XH.l.4.F.N.! ; R 9XfXeXhXhXhXhXhXdX[.z.d.jXjXdX!.:XhXhXeX:XhXrXz.4.=XQ.dXhX{.A...#.R 1 wXeXZ.G.3.B.dX1XgXjXhXhXhXeX",
":XrXhXdX&X_.yXK.l.u.A.$.( 1 ; uXdXeXhXhXhXhXhXpXK.l.B.jXhXjX`.:XhXjX}.:XhXrXv.1.(.Z.fXhX&XL.#.#.1 P wXdX!.G.3.B.jXyXdXjXhXhXjXqX",
";XeXhXhX{.:XyXK.l.5.A.$...< R dXfXeXhXhXhXhXhXdXH.z.B.hXhXjX`.3XhXhX,XqXhXrXz.4.(.Z.dXhX&XP.o.#.1 1 9XfX!.V.l.d.jXeXdXjXhXhXhX:X",
"&XeXhXhX{.:XeX[.M.5.A.@...< P rXdXeXhXhXhXhXhXdXH.k.s.jXhXhX{.wXjXhX:X:XhXrXz.4.=XZ.dXhX].L.@.| 1 ; wXpXZ.V.3.B.hXyXuXjXhXhXjX,X",
";XrXhXhX&X:XeX[.z.u.A.%.~ 2 L dXdXyXfXhXhXhXhXdXK.k.B.hXhXhX`.1XjXhXqXqXhXrXl.1.].!.dXhX{.D.@.@.R < 9XpX!.v.3.B.hXeXdXjXhXhXhXtX",
"&XeXhXhX{.:XeX[.l.u.A.$.~ 1 P dXfXyXdXhXhXhXhXpXH.z.d.hXhXjX`.1XhXjX:X,XhXrXz.1.$X!.fXhX;XL.| ..1 ; 9XdXZ.G.3.d.hXeXpXjXhXhXhXtX",
"%XeXhXhX].:XyXH.z.5.A.@.( 1 P dXdXeXhXhXhXhXhXdXH.l.d.hXhXjX].:XhXhX:X:XjXtXz.6.(.!.dXhX&XD.%.#.1 < 9XgXH.m.5.B.jXyXiXaXhXhXhXtX",
":XeXhXhX{.:XuXK.z.5.A.$.~ 1 R uXdXeXhXhXhXhXhXpXK.z.B.jXjXjX`.wXhXhX:XqXjXrXz.1.=XH.dXhX{.D.#.o.1 1 9XfX!.v.6.B.fXfX6XsXhXhXhX,X",
"{.eXfXhX{.:XyX[.l.4.D.#.! < L dXfXeXhXhXhXfXfXiXZ.z.e.dXfXdX].;XiX7X:X1XhXtXl.4.(.Z.gXfX=XD.| @.R R *XgX!.v.3.d.sXsX7X8XfXjXjX,X",
";X2X2X3X(.3X3XH.3.5.A.@.Q 2 T yXgX3XgXdXiX3X3X<X(.n.b.7X>X3X<X<X2X<X%X%X3X:Xk.=.!._.2XeX<X(.@.| R < =XiX%XV.3.d.6X7X4XsXfXgXfX<X",
"<X<X<X<X<X<X<XA.3.4.F.@.! < R :X3X<X>X>X2X>X>X<XB.'.XX<XOX+XOX;X+X>X>X>X,X_.3.t.(.<X>X>X2X$X....1 1 (.2X<XA.3.w.7X7X4X6X2X<X<X<X",
"<X<X<X2X<X>X2X'.t.!.F.@.! < L {.2X+X|.@X2X+X{.OX^.oXXX_.XX|.|.-X+X@X X|.oX^.!.`.|.<X+XXXOXP.....R 1 (.2X-XK.6.d.7X4X6X7X<X<X<X<X",
"2X;X<X+XXXOX<XoXXXXXM.@./ < R `. X|.|.oX XoX^.).).)./././.Q..XW.^.~./.|.).Q.oXXXoX.X X|.|.j...@.R 1 !.2XOX'.!.r.8X.X6X2X2X2X2X2X",
"OXOX<XoX|.|.-X_.|._.y./ R T R C.W.W.W.R.R.W.W.W.W.W.W.R.W.W.W.W.Q.W./.W.W.R.Q./.Q.W.W.W.Q.u.( ..1 < C.;X<XXX^.e.4X5X8X>XOX+X<X>X",
"|.XX).).W.).g./.W.W.y.3.W W U Q.W.W.W.W.).W.W.W.R.~.W.W.Q.~.W.W.W.W./.W.W.).).~.).R.W.R.W.d.| / R < d.)._.^._.g.4X.X.X7X@X+X|.OX",
"W.^.W.W.W.R.~./.W.j.y.b.j.3.} Q.R.Q.W.R.R./.T.E.t.W.W.h.R.R.f.W.R.Q.Q./.f.R.T.R.R.~.~.R.W.d.O.3.R T d.W./.Q.W.W.W.R.T.^.|.~./.Q.",
"W.h.D D h.j.:.s.R.h.h.~.g.e.{ h.r.r.T.a.f.f.H p.G K 9.F a.G J p.p.R.r.E.p.R.9.~.E.t.Q.f.h.Q.!. .W d.C.W.~.E.R.R.R.E./.R.#XQ./.Q.",
"D j j h n x i.a.a.7.p.t.9.0.G H 7.7.9.7.G K A K N N J N F N J J K i.H 7.H 7.G 0.7.f.R.a.f.R.R.g.2.Q.W.R.E.r.f.R.W.Q.T./.T.f.R.g.",
"j n h i # p s j v V G Y.9.0.H H K H ~.7.G A A H J N N N B B F N J 9.H 0.0.7.9.H K 7.a.K 9.8.a.J 0.Y.T.9.U.9.7.9.0.0.9.7.7.9.a.n ",
"V 9 # $ $ # i j V S A 8.0.r.A A 7.T.T.U.8.7.K F J N m m l l z F 7.w.0.H I.T.I.7.9.K 7.H H J H I.r.r.K K 0.8.r.H G T.U.7.7.K x k ",
"h h # # $ % p h V Z U.;.r.;.D K 9.w.T.r.U.q.H N M N h l l i z G r.w.w.r.T.w.Q.0.I.f.K 9.I.H 7.r.,.R.0.H E.0.w.0.A q.w.T.U.K G S ",
"Z 0 a p p p p p s q.r.-.w.t.y v C ;.t.;.u F A J J S z l l m M A -.*.-.;.-.y =.C 8.r.w.H 0.r.9.A *.,.8.<.R.;.b A q.~.r.t.;.A V V ",
"9 i a d p p   q q j C b C *.b k j -.*.n b n Z F G J S l d k K K C c b c t j b v ;.-.Y.<.T.;.E.C b y *.y *.*.y j C q.*.w.T.v F S ",
"a a i i p %   p s j v j v t j k x v t j j s k k x k k h l x k x k j j j j k 0 v v v b C 8.*.u y v j v c v v C v v b *.*.,.t k k ",
"j j j a q q s t c v v v k k c v k v k k k t c t v k v k k v v k k v v k V v v j k v c n b b v j v v v k v k k v c c v y b c k k ",
"C b { b b b n C C n D b C C C b b C C C C C C b C D C C C C b b D b C y C C C C C C b C C b b C D D y D b C b C C C C C C C C C ",
"E E L P E R E W I I R L E I I E E 1 : E W ) E E I R P E E E E E E E E E P L E U E E E T R L E E U ) E R L E P E W I E R T E W U ",
", = 5 4 - , * - , , 5 > - - 4 - - 5 3 - > - - , , 5 > - - - , - 3 , - - 5 3 - 3 - - - 3 5 3 - - - - - 5 3 - 3 - , 2 - 3 3 - , 3 ",
"- 3 > 3 - - 3 , 8 3 , - 3 , - - 3 3 - 3 - , , - > , , 3 , > = 3 > - - 3 - , 3 - 3 , , > , - , , - = 3 - , 3 - 3 - - > , - , , > ",
"- 5 - * - - > - 5 4 8 - - 3 * - 5 = * - - 3 - 3 4 = = , 3 = 3 3 3 * 3 5 - = - - - - 3 3 = - - 3 = 3 5 , * - * , - 3 3 = 8 - 4 = ",
"3 , > - 4 3 = 3 - = 2 7 3 , , 3 , 3 > 4 > * 7 , , 3 5 - , , , 3 = - 3 - 3 3 5 3 = 4 - - , 3 3 , 2 3 - 3 - 4 3 * 3 3 - 3 4 > - > ",
"5 6 , 6 5 7 , 7 7 - 6 , ^ 6 7 6 4 , 7 7 7 3 7 7 2 6 3 +.4 7 7 3 3 7 7 3 3 4 7 7 4 ^ 7 - 6 4 7 4 7 5 5 2 6 7 7 4 7 7 , 7 3 +.3 7 "
};
